<?xml version="1.0" encoding="UTF-8"?>
<svg version="1.1" xmlns="http://www.w3.org/2000/svg" width="600" height="117">
<path d="M0 0 C3.30008566 1.71470343 5.36595199 4.00181122 7.75390625 6.7734375 C13.40126189 13.10841012 19.31512065 19.14875809 25.31640625 25.1484375 C26.20593994 26.04224121 27.09547363 26.93604492 28.01196289 27.85693359 C28.84719482 28.69047363 29.68242676 29.52401367 30.54296875 30.3828125 C31.29400879 31.13272461 32.04504883 31.88263672 32.81884766 32.65527344 C34.58281077 34.46168018 34.58281077 34.46168018 36.69140625 35.3984375 C36.68616943 34.57641846 36.68093262 33.75439941 36.67553711 32.9074707 C36.65472232 29.17530077 36.6417317 25.44314308 36.62890625 21.7109375 C36.62052734 20.41736328 36.61214844 19.12378906 36.60351562 17.79101562 C36.60029297 16.54384766 36.59707031 15.29667969 36.59375 14.01171875 C36.58851318 12.86485596 36.58327637 11.71799316 36.57788086 10.53637695 C36.69140625 7.3984375 36.69140625 7.3984375 37.69140625 2.3984375 C41.98140625 2.3984375 46.27140625 2.3984375 50.69140625 2.3984375 C51.34611256 6.32667537 51.81845809 9.46085206 51.83666992 13.32714844 C51.84304977 14.25541443 51.84942963 15.18368042 51.85600281 16.14007568 C51.85711563 17.12767883 51.85822845 18.11528198 51.859375 19.1328125 C51.8643676 20.6826181 51.8643676 20.6826181 51.86946106 22.26373291 C51.87451233 24.4456742 51.87686994 26.62762318 51.87670898 28.80957031 C51.87888963 32.12317867 51.89704868 35.43645072 51.91601562 38.75 C51.9189512 40.87760304 51.9209349 43.00520764 51.921875 45.1328125 C51.92906052 46.11231873 51.93624603 47.09182495 51.94364929 48.10101318 C51.92298317 54.42099124 51.16452217 60.25261105 49.69140625 66.3984375 C45.37165762 65.54775205 43.70053469 63.63122678 40.69140625 60.3984375 C39.70001591 59.38029169 38.70565593 58.36503121 37.70874023 57.35229492 C37.18146835 56.81211227 36.65419647 56.27192963 36.11094666 55.71537781 C33.74743759 53.2981639 31.37309024 50.89171234 28.99829102 48.4855957 C27.74667345 47.21370903 26.49864738 45.93827859 25.25415039 44.65942383 C23.44958845 42.80648094 21.63252974 40.96664212 19.8125 39.12890625 C19.25823837 38.55399948 18.70397675 37.97909271 18.13291931 37.38676453 C16.39207415 35.59913697 16.39207415 35.59913697 13.69140625 33.3984375 C12.37140625 33.3984375 11.05140625 33.3984375 9.69140625 33.3984375 C9.36140625 42.9684375 9.03140625 52.5384375 8.69140625 62.3984375 C2.75140625 62.8934375 2.75140625 62.8934375 -3.30859375 63.3984375 C-7.8332447 58.87378655 -5.43614902 41.32310867 -5.44647217 35.13531494 C-5.44569441 33.06660833 -5.4431715 30.9979017 -5.43896484 28.92919922 C-5.43354658 25.7457211 -5.438968 22.5623804 -5.4453125 19.37890625 C-5.44465268 17.35156219 -5.44337352 15.32421821 -5.44140625 13.296875 C-5.44343048 12.34694672 -5.44545471 11.39701843 -5.44754028 10.41830444 C-5.44438812 9.53953644 -5.44123596 8.66076843 -5.43798828 7.75537109 C-5.43719269 6.98405853 -5.43639709 6.21274597 -5.43557739 5.4180603 C-5.30859375 3.3984375 -5.30859375 3.3984375 -4.30859375 0.3984375 C-2.30859375 -0.6015625 -2.30859375 -0.6015625 0 0 Z " fill="#26292A" transform="translate(37.30859375,29.6015625)"/>
<path d="M0 0 C0.86149155 0.00718552 1.72298309 0.01437103 2.61058044 0.02177429 C3.49322067 0.02223251 4.3758609 0.02269073 5.2852478 0.02316284 C7.1522506 0.02618617 9.01925086 0.03407487 10.88621521 0.0464325 C13.75471358 0.06469078 16.62288941 0.0669422 19.49143982 0.06669617 C21.3019895 0.07161116 23.11253699 0.0774394 24.92308044 0.08427429 C25.78659622 0.08538712 26.650112 0.08649994 27.53979492 0.08764648 C33.58437804 0.13619689 33.58437804 0.13619689 34.70042419 1.25224304 C34.70042419 4.88224304 34.70042419 8.51224304 34.70042419 12.25224304 C21.33542419 12.74724304 21.33542419 12.74724304 7.70042419 13.25224304 C7.70042419 16.88224304 7.70042419 20.51224304 7.70042419 24.25224304 C9.13257263 24.24064148 10.56472107 24.22903992 12.04026794 24.21708679 C13.90615206 24.20771049 15.77203759 24.19861012 17.63792419 24.18974304 C18.58345154 24.18136414 19.52897888 24.17298523 20.50315857 24.16435242 C21.85184021 24.15951843 21.85184021 24.15951843 23.22776794 24.15458679 C24.47674866 24.14673157 24.47674866 24.14673157 25.7509613 24.13871765 C27.70042419 24.25224304 27.70042419 24.25224304 28.70042419 25.25224304 C28.84352707 28.92140074 28.74264081 32.57939745 28.70042419 36.25224304 C21.77042419 36.25224304 14.84042419 36.25224304 7.70042419 36.25224304 C7.70042419 40.54224304 7.70042419 44.83224304 7.70042419 49.25224304 C9.56569763 49.24064148 11.43097107 49.22903992 13.35276794 49.21708679 C15.78115237 49.20771079 18.20953786 49.19861039 20.63792419 49.18974304 C22.48547302 49.17717468 22.48547302 49.17717468 24.37034607 49.16435242 C25.54017029 49.16112976 26.70999451 49.1579071 27.91526794 49.15458679 C29.54129944 49.14673157 29.54129944 49.14673157 31.20018005 49.13871765 C33.70042419 49.25224304 33.70042419 49.25224304 34.70042419 50.25224304 C34.77247931 51.9383327 34.78428487 53.62724963 34.76292419 55.31474304 C34.75390076 56.2338446 34.74487732 57.15294617 34.73558044 58.09989929 C34.72397888 58.81017273 34.71237732 59.52044617 34.70042419 60.25224304 C28.87970797 60.27688942 23.05902185 60.29507734 17.23826599 60.30717468 C15.25648978 60.31221572 13.27471731 60.31904842 11.29295349 60.3276825 C8.45090311 60.33975819 5.60890172 60.34547349 2.76683044 60.34989929 C1.42933495 60.35764122 1.42933495 60.35764122 0.06481934 60.36553955 C-2.05698182 60.36573481 -4.1786836 60.31434334 -6.29957581 60.25224304 C-7.29957581 59.25224304 -7.29957581 59.25224304 -7.4131012 57.50436401 C-7.40786438 56.74335892 -7.40262756 55.98235382 -7.39723206 55.19828796 C-7.39392883 54.33616196 -7.39062561 53.47403595 -7.38722229 52.58578491 C-7.37892395 51.64427078 -7.37062561 50.70275665 -7.36207581 49.73271179 C-7.35828918 48.7637648 -7.35450256 47.79481781 -7.3506012 46.79650879 C-7.33425909 42.64050632 -7.30646336 38.48460121 -7.27906799 34.32865906 C-7.26076968 31.29667593 -7.24723862 28.2647327 -7.23707581 25.23271179 C-7.23312805 24.25921783 -7.2291803 23.28572388 -7.22511292 22.2827301 C-7.22563433 16.20571609 -7.48228635 10.28788842 -8.27613831 4.25737 C-8.28387268 3.5956781 -8.29160706 2.93398621 -8.29957581 2.25224304 C-5.63061149 -0.41672127 -3.62834173 0.01399843 0 0 Z " fill="#27292A" transform="translate(117.29957580566406,31.747756958007813)"/>
<path d="M0 0 C5.15430776 -0.59702406 9.86122679 -0.85911379 15 0 C18.41147245 2.78967698 20.07600728 6.08547878 22 10 C22.91992475 11.55221803 23.85570897 13.09523097 24.8125 14.625 C25.19019531 15.27726562 25.56789062 15.92953125 25.95703125 16.6015625 C26.30121094 17.06304687 26.64539063 17.52453125 27 18 C27.66 18 28.32 18 29 18 C30.30737453 16.40269303 30.30737453 16.40269303 31.56640625 14.31640625 C32.05173828 13.55392578 32.53707031 12.79144531 33.03710938 12.00585938 C33.54048828 11.19955078 34.04386719 10.39324219 34.5625 9.5625 C35.56290554 7.97990166 36.56416326 6.39784159 37.56640625 4.81640625 C38.00927979 4.10943604 38.45215332 3.40246582 38.90844727 2.67407227 C40 1 40 1 41 0 C43.53049402 -0.07313567 46.03304837 -0.09247527 48.5625 -0.0625 C49.62887695 -0.05573242 49.62887695 -0.05573242 50.71679688 -0.04882812 C52.47790013 -0.03700864 54.23896036 -0.01907263 56 0 C54.43407117 4.77062039 51.74400818 8.30088176 48.75 12.25 C47.76081177 13.58526607 46.77252604 14.92120122 45.78515625 16.2578125 C44.15835912 18.44923303 42.5212726 20.63069041 40.87109375 22.8046875 C40.31550781 23.57039063 39.75992188 24.33609375 39.1875 25.125 C38.70667969 25.76695313 38.22585937 26.40890625 37.73046875 27.0703125 C36.78930041 29.02413829 36.78930041 29.02413829 37.5 31.25390625 C39.58125147 35.06411402 42.15067682 38.39107553 44.8125 41.8125 C56 56.26359703 56 56.26359703 56 60 C51.2523358 61.96854369 47.98886981 62.36060086 43 61 C38.00159919 57.12623937 34.29577249 51.36631544 31 46 C31 45.34 31 44.68 31 44 C28.62922161 43.71041592 28.62922161 43.71041592 26 44 C24.25002724 45.42474869 24.25002724 45.42474869 22.921875 47.46484375 C22.40109375 48.18220703 21.8803125 48.89957031 21.34375 49.63867188 C20.8178125 50.39728516 20.291875 51.15589844 19.75 51.9375 C18.68236508 53.42583392 17.61466043 54.91411781 16.546875 56.40234375 C16.08120117 57.06741943 15.61552734 57.73249512 15.13574219 58.41772461 C14 60 14 60 13 61 C11.21059028 61.09908783 9.41714492 61.12970379 7.625 61.125 C6.64789063 61.12757812 5.67078125 61.13015625 4.6640625 61.1328125 C2 61 2 61 -1 60 C-0.38960216 56.5627755 0.8835873 54.55608664 3.0546875 51.84765625 C3.66957031 51.07099609 4.28445312 50.29433594 4.91796875 49.49414062 C5.56378906 48.69169922 6.20960938 47.88925781 6.875 47.0625 C11.63390293 41.19975805 11.63390293 41.19975805 15.8203125 34.93359375 C16.20960938 34.29550781 16.59890625 33.65742187 17 33 C17.66 33 18.32 33 19 33 C18.44595444 29.37981593 17.58394472 26.94185364 15.5 23.9375 C14.70142578 22.78507812 14.70142578 22.78507812 13.88671875 21.609375 C9.78515158 15.9368142 5.65762499 10.25603061 1.23046875 4.83203125 C0 3 0 3 0 0 Z " fill="#414244" transform="translate(166,32)"/>
<path d="M0 0 C0.66 0.33 1.32 0.66 2 1 C2.54663086 2.88818359 2.54663086 2.88818359 2.96484375 5.3984375 C3.1237207 6.33993652 3.28259766 7.28143555 3.44628906 8.25146484 C3.60838867 9.28223145 3.77048828 10.31299805 3.9375 11.375 C4.10862305 12.43541504 4.27974609 13.49583008 4.45605469 14.58837891 C5.7462811 22.82828859 6.8082745 31.08850504 7.75 39.375 C7.87753662 40.48407715 8.00507324 41.5931543 8.13647461 42.73583984 C8.83219458 49.18528599 9.16346582 55.51403954 9 62 C6.69 62.66 4.38 63.32 2 64 C-0.1299523 51.39569406 -1.51925884 38.69312691 -3 26 C-3.98421674 28.06020931 -4.96292086 30.12272704 -5.9375 32.1875 C-6.40023315 33.16420654 -6.40023315 33.16420654 -6.87231445 34.16064453 C-8.79977484 38.27872586 -10.60769614 42.42765958 -12.328125 46.63671875 C-12.72008057 47.58716064 -13.11203613 48.53760254 -13.51586914 49.5168457 C-14.29083052 51.40733806 -15.05327562 53.30301447 -15.80249023 55.20385742 C-16.16028564 56.07244385 -16.51808105 56.94103027 -16.88671875 57.8359375 C-17.19826904 58.61501465 -17.50981934 59.3940918 -17.83081055 60.19677734 C-19 62 -19 62 -21.13208008 62.76025391 C-22.05670044 62.87892822 -22.05670044 62.87892822 -23 63 C-25.02590272 59.72620562 -26.79134945 56.45339075 -28.375 52.9453125 C-28.80296875 52.00042969 -29.2309375 51.05554688 -29.671875 50.08203125 C-30.11015625 49.10621094 -30.5484375 48.13039062 -31 47.125 C-31.43828125 46.15691406 -31.8765625 45.18882813 -32.328125 44.19140625 C-34.17416308 40.10454483 -35.99932131 36.02188856 -37.6875 31.8671875 C-38.68505002 28.89617324 -38.68505002 28.89617324 -41 28 C-41.08217773 28.98987915 -41.08217773 28.98987915 -41.16601562 29.99975586 C-41.76137307 36.88327381 -42.56011428 43.71808467 -43.5 50.5625 C-43.63019531 51.54541016 -43.76039063 52.52832031 -43.89453125 53.54101562 C-44.02214844 54.47751953 -44.14976562 55.41402344 -44.28125 56.37890625 C-44.39533203 57.2201001 -44.50941406 58.06129395 -44.62695312 58.92797852 C-45 61 -45 61 -46 63 C-47.99954746 63.04254356 -50.00041636 63.04080783 -52 63 C-52.33 62.67 -52.66 62.34 -53 62 C-52.9877328 59.21227871 -52.90129188 56.46892202 -52.75 53.6875 C-52.70407715 52.83663818 -52.6581543 51.98577637 -52.61083984 51.10913086 C-52.07674017 42.51390738 -50.80998722 34.08621955 -49.41601562 25.59521484 C-48.9766659 22.85443575 -48.57017368 20.11031514 -48.171875 17.36328125 C-48.0382959 16.44474365 -47.9047168 15.52620605 -47.76708984 14.57983398 C-47.51054452 12.81005465 -47.25559743 11.04004272 -47.00244141 9.26977539 C-46.11148992 3.22297985 -46.11148992 3.22297985 -45 1 C-44.01 1 -43.02 1 -42 1 C-34.86541118 15.78805682 -28.48689062 30.92050352 -22 46 C-20.04207958 43.06311937 -18.78768266 40.32371503 -17.42578125 37.07421875 C-16.92602783 35.89061768 -16.42627441 34.7070166 -15.91137695 33.48754883 C-15.51917465 32.55478622 -15.51917465 32.55478622 -15.11904907 31.60317993 C-3.13195094 3.13195094 -3.13195094 3.13195094 0 0 Z " fill="#878487" transform="translate(286,30)"/>
<path d="M0 0 C3.81223512 -0.11745244 7.62399682 -0.18766603 11.4375 -0.25 C12.50677734 -0.28351562 13.57605469 -0.31703125 14.67773438 -0.3515625 C22.12491514 -0.44265951 28.91075465 0.25239873 34.61889648 5.48364258 C38.83244503 10.3005099 39.30019571 14.35903507 39.2109375 20.5 C38.7843747 25.55555912 36.64087505 28.62436029 32.9375 31.875 C30 34 30 34 28 34 C28.50768921 35.0669812 28.50768921 35.0669812 29.02563477 36.15551758 C30.54810783 39.36980241 32.05544344 42.5909601 33.5625 45.8125 C34.09552734 46.93205078 34.62855469 48.05160156 35.17773438 49.20507812 C35.92700195 50.81479492 35.92700195 50.81479492 36.69140625 52.45703125 C37.15748291 53.44678955 37.62355957 54.43654785 38.10375977 55.45629883 C39 58 39 58 38 61 C32.92253648 61.30280933 32.92253648 61.30280933 30 60 C26.9526649 55.52677544 25.33521033 50.27146141 23.48632812 45.21484375 C23.06158203 44.18488281 22.63683594 43.15492187 22.19921875 42.09375 C21.67074341 40.66579102 21.67074341 40.66579102 21.1315918 39.20898438 C18.23122637 35.72161296 18.23122637 35.72161296 8 36 C7.67 43.92 7.34 51.84 7 60 C4.69 60 2.38 60 0 60 C-2.0465936 57.9534064 -1.42803709 53.8106907 -1.5625 51 C-1.6035083 50.14583496 -1.6445166 49.29166992 -1.68676758 48.41162109 C-2.02831393 40.22723701 -2.13788447 32.0412387 -2.17623901 23.85058594 C-2.18371514 22.37302718 -2.1943695 20.89548091 -2.20828247 19.41796875 C-2.22627359 17.31238491 -2.23031068 15.2072147 -2.23046875 13.1015625 C-2.23457764 11.87775879 -2.23868652 10.65395508 -2.24291992 9.39306641 C-1.99622178 5.94722644 -1.23836505 3.21171218 0 0 Z M7 9 C6.91348389 10.41570123 6.89295096 11.835595 6.90234375 13.25390625 C6.90556641 14.10791016 6.90878906 14.96191406 6.91210938 15.84179688 C6.92048828 16.73962891 6.92886719 17.63746094 6.9375 18.5625 C6.94201172 19.46419922 6.94652344 20.36589844 6.95117188 21.29492188 C6.96299775 23.53001314 6.9794778 25.76497437 7 28 C9.71003427 28.1358035 12.41318941 28.23444624 15.125 28.3125 C15.88554687 28.35439453 16.64609375 28.39628906 17.4296875 28.43945312 C21.5959395 28.52924304 24.19489224 28.28883246 27.4921875 25.60546875 C30.255546 22.73450283 30.93298188 22.02761118 31.1875 18.125 C31.00322294 15.05371571 30.7058043 13.51381686 29 11 C24.22888084 7.81925389 19.8943734 7.86222992 14.25 7.875 C12.52523438 7.87113281 12.52523438 7.87113281 10.765625 7.8671875 C8.0908767 7.68499836 8.0908767 7.68499836 7 9 Z " fill="#292929" transform="translate(371,32)"/>
<path d="M0 0 C1.51815699 0.00015911 3.0363194 0.00585313 4.55444336 0.01586914 C5.35208603 0.01728409 6.1497287 0.01869904 6.97154236 0.02015686 C9.52916146 0.02577223 12.08669429 0.03832727 14.64428711 0.05102539 C16.37410356 0.05603841 18.10392137 0.06060166 19.83374023 0.06469727 C24.08312264 0.07574664 28.33244023 0.09302153 32.58178711 0.11352539 C32.58178711 2.75352539 32.58178711 5.39352539 32.58178711 8.11352539 C23.34178711 8.44352539 14.10178711 8.77352539 4.58178711 9.11352539 C4.91178711 14.39352539 5.24178711 19.67352539 5.58178711 25.11352539 C7.94657227 25.2044043 7.94657227 25.2044043 10.35913086 25.29711914 C12.41252654 25.38150526 14.46591142 25.46615422 16.51928711 25.55102539 C17.56020508 25.5903418 18.60112305 25.6296582 19.67358398 25.67016602 C21.15761719 25.73300781 21.15761719 25.73300781 22.67163086 25.79711914 C24.04629517 25.85210571 24.04629517 25.85210571 25.44873047 25.90820312 C27.58178711 26.11352539 27.58178711 26.11352539 28.58178711 27.11352539 C28.70678711 30.11352539 28.70678711 30.11352539 28.58178711 33.11352539 C26.96814791 34.72716459 25.1555094 34.31696641 22.92553711 34.39477539 C21.98581055 34.4321582 21.04608398 34.46954102 20.07788086 34.50805664 C18.08048503 34.57836914 16.08308919 34.64868164 14.08569336 34.71899414 C13.1459668 34.75637695 12.20624023 34.79375977 11.23803711 34.83227539 C10.36985352 34.86256836 9.50166992 34.89286133 8.60717773 34.92407227 C6.58684581 34.8957404 6.58684581 34.8957404 5.58178711 36.11352539 C5.34483563 38.80775144 5.16010109 41.4768715 5.01928711 44.17602539 C4.87491211 46.79540039 4.73053711 49.41477539 4.58178711 52.11352539 C13.82178711 52.11352539 23.06178711 52.11352539 32.58178711 52.11352539 C33.58178711 57.11352539 33.58178711 57.11352539 32.58178711 60.11352539 C20.37178711 60.11352539 8.16178711 60.11352539 -4.41821289 60.11352539 C-4.43915838 52.44514972 -4.45919647 44.77687708 -4.46996307 37.10849762 C-4.47525279 33.53781414 -4.48232628 29.96715424 -4.49365234 26.39648438 C-4.50655465 22.30346442 -4.51144195 18.21046959 -4.51586914 14.11743164 C-4.52103043 12.83203995 -4.52619171 11.54664825 -4.5315094 10.2223053 C-4.53158493 9.04115646 -4.53166046 7.86000763 -4.53173828 6.64306641 C-4.53395889 5.59715836 -4.5361795 4.55125031 -4.53846741 3.47364807 C-4.34697685 -0.28455753 -3.89358933 0.12931355 0 0 Z " fill="#262626" transform="translate(484.418212890625,31.886474609375)"/>
<path d="M0 0 C2.64 0 5.28 0 8 0 C8.19613594 3.02049342 8.38214855 6.04105658 8.5625 9.0625 C8.61857422 9.91005859 8.67464844 10.75761719 8.73242188 11.63085938 C9.02040528 16.60337287 8.89796753 21.09776245 8 26 C8.66 26 9.32 26 10 26 C10.25394531 25.41734375 10.50789063 24.8346875 10.76953125 24.234375 C12.13320333 21.75811967 13.64225203 20.19479374 15.6875 18.25 C18.46309591 15.54969151 21.09966998 12.81090706 23.625 9.875 C24.19734375 9.22273438 24.7696875 8.57046875 25.359375 7.8984375 C26.41632651 6.67539361 27.44991401 5.43156026 28.453125 4.1640625 C30.64208279 1.60226025 31.96329593 0.16027991 35.375 -0.3671875 C37.61748 -0.37419525 39.7747455 -0.26703054 42 0 C41.41213392 3.28415804 40.41155441 4.98708524 38.12109375 7.390625 C37.53287842 8.01412842 36.94466309 8.63763184 36.33862305 9.2800293 C35.71125244 9.93011963 35.08388184 10.58020996 34.4375 11.25 C33.80432861 11.91878174 33.17115723 12.58756348 32.51879883 13.27661133 C28.57279361 17.42745967 24.55553918 21.49113104 20.35546875 25.38671875 C18.71724302 27.33653784 18.11180628 28.44303889 18 31 C19.27753159 33.12350314 19.27753159 33.12350314 21.375 35.1875 C22.18582031 36.04730469 22.99664062 36.90710938 23.83203125 37.79296875 C26.32713663 40.33969126 28.85653426 42.85145882 31.38671875 45.36328125 C32.15516113 46.12680908 32.92360352 46.89033691 33.71533203 47.67700195 C35.27393864 49.21955884 36.83869376 50.75592908 38.40966797 52.28588867 C39.1317041 52.99592041 39.85374023 53.70595215 40.59765625 54.4375 C41.25258057 55.07558594 41.90750488 55.71367188 42.58227539 56.37109375 C44 58 44 58 44 60 C40.13180033 60.74071909 36.85962437 60.85610008 33 60 C28.72247771 56.83884838 25.4148654 53.03817156 22 49 C20.7293251 47.54152862 19.45851478 46.0831752 18.1875 44.625 C17.70667969 44.03976563 17.22585938 43.45453125 16.73046875 42.8515625 C14.34911189 40.30356442 11.70763885 38.19783237 9 36 C8.97494385 36.72179443 8.9498877 37.44358887 8.92407227 38.18725586 C8.80848698 41.437535 8.68559226 44.68749688 8.5625 47.9375 C8.52318359 49.07380859 8.48386719 50.21011719 8.44335938 51.38085938 C8.40146484 52.46044922 8.35957031 53.54003906 8.31640625 54.65234375 C8.26141968 56.15269165 8.26141968 56.15269165 8.20532227 57.68334961 C8 60 8 60 7 61 C4.69 60.67 2.38 60.34 0 60 C0 40.2 0 20.4 0 0 Z " fill="#2E2E2E" transform="translate(425,32)"/>
<path d="M0 0 C3.34679581 1.02054966 4.044933 2.08073889 5.7800293 5.19848633 C6.3915109 6.5704323 6.9886481 7.94882754 7.57421875 9.33203125 C8.06260979 10.44255608 8.06260979 10.44255608 8.56086731 11.57551575 C9.61573606 13.982546 10.65184624 16.39714782 11.6875 18.8125 C12.40389229 20.45863038 13.12134219 22.1043009 13.83984375 23.74951172 C15.59233818 27.77031787 17.32986509 31.79738641 19.06292725 35.82659912 C20.38164007 38.88515737 21.71607222 41.93666974 23.05078125 44.98828125 C23.86814433 46.86677146 24.6846465 48.74563667 25.5 50.625 C26.05046997 51.89114136 26.05046997 51.89114136 26.61206055 53.18286133 C29 58.76224237 29 58.76224237 29 61 C26.03 61 23.06 61 20 61 C19.16235732 59.04350603 18.33000941 57.08474444 17.5 55.125 C17.0359375 54.03445312 16.571875 52.94390625 16.09375 51.8203125 C15 49 15 49 15 47 C1.635 47.495 1.635 47.495 -12 48 C-12.969375 50.124375 -13.93875 52.24875 -14.9375 54.4375 C-17.875 60.875 -17.875 60.875 -19 62 C-20.99958364 62.04080783 -23.00045254 62.04254356 -25 62 C-26.45435732 58.19067446 -25.50868783 56.11107307 -23.89453125 52.46875 C-23.41097168 51.36063965 -22.92741211 50.2525293 -22.42919922 49.11083984 C-21.89568848 47.9192627 -21.36217773 46.72768555 -20.8125 45.5 C-20.2672466 44.26173416 -19.72315456 43.02295635 -19.18017578 41.78369141 C-18.33208052 39.84921234 -17.48283186 37.91530123 -16.62908936 35.98330688 C-14.5766133 31.33694572 -12.57378271 26.67148779 -10.59765625 21.9921875 C-10.0516858 20.70246999 -9.50570613 19.41275639 -8.9597168 18.12304688 C-7.91503624 15.65430283 -6.87423657 13.18402941 -5.83520508 10.71289062 C-5.36107178 9.59849609 -4.88693848 8.48410156 -4.3984375 7.3359375 C-3.98255371 6.35157715 -3.56666992 5.3672168 -3.13818359 4.35302734 C-2 2 -2 2 0 0 Z M1 18 C-1.63406245 19.31703122 -1.82202149 20.4918763 -2.9453125 23.18359375 C-3.29980469 24.02857422 -3.65429688 24.87355469 -4.01953125 25.74414062 C-4.38433594 26.63294922 -4.74914062 27.52175781 -5.125 28.4375 C-5.49753906 29.32244141 -5.87007813 30.20738281 -6.25390625 31.11914062 C-8.24072618 35.4217174 -8.24072618 35.4217174 -9 40 C-6.04142591 40.05379226 -3.08382279 40.09357093 -0.125 40.125 C1.13763672 40.15013672 1.13763672 40.15013672 2.42578125 40.17578125 C3.23144531 40.18222656 4.03710938 40.18867187 4.8671875 40.1953125 C5.61081543 40.20578613 6.35444336 40.21625977 7.12060547 40.22705078 C9.24490235 40.1665597 9.24490235 40.1665597 11 38 C9.7192029 34.84963077 8.42357064 31.70558015 7.125 28.5625 C6.57779297 27.21575195 6.57779297 27.21575195 6.01953125 25.84179688 C5.66503906 24.98779297 5.31054688 24.13378906 4.9453125 23.25390625 C4.62062988 22.46314697 4.29594727 21.6723877 3.96142578 20.85766602 C3.14051805 18.82492892 3.14051805 18.82492892 1 18 Z " fill="#242626" transform="translate(330,31)"/>
<path d="M0 0 C1.72974441 0.00015918 3.45949355 0.0058569 5.18920898 0.01586914 C6.09783188 0.01728409 7.00645477 0.01869904 7.94261169 0.02015686 C10.85687494 0.02577346 13.77106254 0.03832874 16.68530273 0.05102539 C18.65600475 0.05603825 20.62670797 0.06060153 22.59741211 0.06469727 C27.43923832 0.07574828 32.28100768 0.09302401 37.12280273 0.11352539 C37.12280273 2.75352539 37.12280273 5.39352539 37.12280273 8.11352539 C31.84280273 8.11352539 26.56280273 8.11352539 21.12280273 8.11352539 C21.13065796 10.46852173 21.13065796 10.46852173 21.13867188 12.87109375 C21.15671416 18.67252029 21.16823191 24.47394433 21.17773438 30.27539062 C21.18277637 32.79069434 21.18960976 35.30599511 21.19824219 37.82128906 C21.21031367 41.42782314 21.21603222 45.03431862 21.22045898 48.64086914 C21.22562027 49.77314438 21.23078156 50.90541962 21.23609924 52.07200623 C21.23621254 53.63351158 21.23621254 53.63351158 21.23632812 55.2265625 C21.23854874 56.1481163 21.24076935 57.0696701 21.24305725 58.01914978 C21.12280273 60.11352539 21.12280273 60.11352539 20.12280273 61.11352539 C17.81280273 61.11352539 15.50280273 61.11352539 13.12280273 61.11352539 C12.79280273 43.95352539 12.46280273 26.79352539 12.12280273 9.11352539 C6.84280273 8.78352539 1.56280273 8.45352539 -3.87719727 8.11352539 C-4.87719727 7.11352539 -4.87719727 7.11352539 -5.00219727 4.11352539 C-4.81520101 -0.37438485 -4.66872565 0.13670156 0 0 Z " fill="#2D2D2D" transform="translate(530.877197265625,31.886474609375)"/>
<path d="M0 0 C5.62401497 1.12480299 5.62401497 1.12480299 8.41015625 4.23828125 C9.30637695 5.22151367 9.30637695 5.22151367 10.22070312 6.22460938 C10.82849609 6.91361328 11.43628906 7.60261719 12.0625 8.3125 C13.28209217 9.66317584 14.50213211 11.01344752 15.72265625 12.36328125 C16.28871582 12.99572754 16.85477539 13.62817383 17.43798828 14.27978516 C19.22935118 16.25258024 21.08743666 18.14467048 23 20 C22.67 20.66 22.34 21.32 22 22 C21.34 22 20.68 22 20 22 C19.401875 22.33 18.80375 22.66 18.1875 23 C16 24 16 24 11 24 C11 35.88 11 47.76 11 60 C7.37 60 3.74 60 0 60 C0 40.2 0 20.4 0 0 Z " fill="#252728" transform="translate(34,31)"/>
<path d="M0 0 C3.30008566 1.71470343 5.36595199 4.00181122 7.75390625 6.7734375 C13.40126189 13.10841012 19.31512065 19.14875809 25.31640625 25.1484375 C26.20593994 26.04224121 27.09547363 26.93604492 28.01196289 27.85693359 C28.84719482 28.69047363 29.68242676 29.52401367 30.54296875 30.3828125 C31.29400879 31.13272461 32.04504883 31.88263672 32.81884766 32.65527344 C34.58281077 34.46168018 34.58281077 34.46168018 36.69140625 35.3984375 C36.68616943 34.57641846 36.68093262 33.75439941 36.67553711 32.9074707 C36.65472232 29.17530077 36.6417317 25.44314308 36.62890625 21.7109375 C36.62052734 20.41736328 36.61214844 19.12378906 36.60351562 17.79101562 C36.60029297 16.54384766 36.59707031 15.29667969 36.59375 14.01171875 C36.58851318 12.86485596 36.58327637 11.71799316 36.57788086 10.53637695 C36.69140625 7.3984375 36.69140625 7.3984375 37.69140625 2.3984375 C41.98140625 2.3984375 46.27140625 2.3984375 50.69140625 2.3984375 C51.34611256 6.32667537 51.81845809 9.46085206 51.83666992 13.32714844 C51.84304977 14.25541443 51.84942963 15.18368042 51.85600281 16.14007568 C51.85711563 17.12767883 51.85822845 18.11528198 51.859375 19.1328125 C51.8643676 20.6826181 51.8643676 20.6826181 51.86946106 22.26373291 C51.87451233 24.4456742 51.87686994 26.62762318 51.87670898 28.80957031 C51.87888963 32.12317867 51.89704868 35.43645072 51.91601562 38.75 C51.9189512 40.87760304 51.9209349 43.00520764 51.921875 45.1328125 C51.92906052 46.11231873 51.93624603 47.09182495 51.94364929 48.10101318 C51.92298317 54.42099124 51.16452217 60.25261105 49.69140625 66.3984375 C48.37140625 66.0684375 47.05140625 65.7384375 45.69140625 65.3984375 C46.68140625 64.7384375 47.67140625 64.0784375 48.69140625 63.3984375 C49.16952745 60.77550461 49.16952745 60.77550461 49.1237793 57.66357422 C49.14357346 56.46248016 49.16336761 55.26138611 49.1837616 54.02389526 C49.19334648 52.07073898 49.19334648 52.07073898 49.203125 50.078125 C49.21996537 48.7357518 49.23811474 47.39339444 49.25752258 46.05105591 C49.30509932 42.51655016 49.3348585 38.98210857 49.36096191 35.4473877 C49.39072914 31.84109825 49.43727248 28.23503011 49.48242188 24.62890625 C49.56854198 17.55219573 49.63429794 10.47545022 49.69140625 3.3984375 C46.06140625 3.3984375 42.43140625 3.3984375 38.69140625 3.3984375 C38.69140625 15.2784375 38.69140625 27.1584375 38.69140625 39.3984375 C34.69140625 37.3984375 34.69140625 37.3984375 31.69140625 35.3984375 C32.02140625 36.3884375 32.35140625 37.3784375 32.69140625 38.3984375 C32.03140625 39.0584375 31.37140625 39.7184375 30.69140625 40.3984375 C31.00078125 41.3059375 31.31015625 42.2134375 31.62890625 43.1484375 C32.69140625 46.3984375 32.69140625 46.3984375 32.94140625 48.28125 C34.07841415 51.49092854 36.29816791 53.20930995 38.75390625 55.5234375 C40.43467776 57.1122734 42.08972697 58.72990046 43.69140625 60.3984375 C43.69140625 61.0584375 43.69140625 61.7184375 43.69140625 62.3984375 C43.03140625 62.3984375 42.37140625 62.3984375 41.69140625 62.3984375 C40.34057617 61.03515625 40.34057617 61.03515625 38.734375 59.0859375 C34.07233396 53.60885431 29.06146565 48.50886338 24.00390625 43.3984375 C23.53428467 42.9142334 23.06466309 42.4300293 22.58081055 41.93115234 C21.20692024 40.51482436 19.81849967 39.11263658 18.4296875 37.7109375 C17.61540283 36.88207031 16.80111816 36.05320313 15.9621582 35.19921875 C13.65207736 32.98419695 13.65207736 32.98419695 9.69140625 33.3984375 C9.36140625 42.9684375 9.03140625 52.5384375 8.69140625 62.3984375 C2.75140625 62.8934375 2.75140625 62.8934375 -3.30859375 63.3984375 C-7.8332447 58.87378655 -5.43614902 41.32310867 -5.44647217 35.13531494 C-5.44569441 33.06660833 -5.4431715 30.9979017 -5.43896484 28.92919922 C-5.43354658 25.7457211 -5.438968 22.5623804 -5.4453125 19.37890625 C-5.44465268 17.35156219 -5.44337352 15.32421821 -5.44140625 13.296875 C-5.44343048 12.34694672 -5.44545471 11.39701843 -5.44754028 10.41830444 C-5.44438812 9.53953644 -5.44123596 8.66076843 -5.43798828 7.75537109 C-5.43719269 6.98405853 -5.43639709 6.21274597 -5.43557739 5.4180603 C-5.30859375 3.3984375 -5.30859375 3.3984375 -4.30859375 0.3984375 C-2.30859375 -0.6015625 -2.30859375 -0.6015625 0 0 Z M-3.30859375 1.3984375 C-3.30859375 21.1984375 -3.30859375 40.9984375 -3.30859375 61.3984375 C0.32140625 61.3984375 3.95140625 61.3984375 7.69140625 61.3984375 C7.69140625 49.5184375 7.69140625 37.6384375 7.69140625 25.3984375 C11.65140625 24.9034375 11.65140625 24.9034375 15.69140625 24.3984375 C16.35140625 23.7384375 17.01140625 23.0784375 17.69140625 22.3984375 C18.35140625 22.7284375 19.01140625 23.0584375 19.69140625 23.3984375 C18.09690905 19.4400055 15.48243499 17.02310597 12.44140625 14.0859375 C9.18962088 10.92940378 6.07565548 7.76532599 3.25390625 4.2109375 C2.40828125 3.2828125 1.56265625 2.3546875 0.69140625 1.3984375 C-0.62859375 1.3984375 -1.94859375 1.3984375 -3.30859375 1.3984375 Z " fill="#484A4B" transform="translate(37.30859375,29.6015625)"/>
<path d="M0 0 C3.81223512 -0.11745244 7.62399682 -0.18766603 11.4375 -0.25 C12.50677734 -0.28351562 13.57605469 -0.31703125 14.67773438 -0.3515625 C22.12491514 -0.44265951 28.91075465 0.25239873 34.61889648 5.48364258 C38.8337534 10.30200561 39.2852967 14.35342299 39.22265625 20.4921875 C38.79453856 25.31414463 36.63190677 28.88693705 33 32 C32.34 31.67 31.68 31.34 31 31 C32.32 29.68 33.64 28.36 35 27 C34.505 26.01 34.505 26.01 34 25 C31.52733235 25.34444881 31.52733235 25.34444881 29 26 C28.67 26.66 28.34 27.32 28 28 C25.20110283 28.96664909 22.61517492 29.11867982 19.671875 29.09765625 C18.9509668 29.09515869 18.23005859 29.09266113 17.48730469 29.09008789 C16.58399414 29.08098389 15.68068359 29.07187988 14.75 29.0625 C11.8625 29.041875 8.975 29.02125 6 29 C6 21.74 6 14.48 6 7 C7.32 6.34 8.64 5.68 10 5 C10 4.34 10 3.68 10 3 C7.03 2.67 4.06 2.34 1 2 C1 20.81 1 39.62 1 59 C2.65 59 4.3 59 6 59 C6 51.08 6 43.16 6 35 C10.62 35 15.24 35 20 35 C19.67 35.66 19.34 36.32 19 37 C15.37 36.67 11.74 36.34 8 36 C7.67 43.92 7.34 51.84 7 60 C4.69 60 2.38 60 0 60 C-2.0465936 57.9534064 -1.42803709 53.8106907 -1.5625 51 C-1.6035083 50.14583496 -1.6445166 49.29166992 -1.68676758 48.41162109 C-2.02831393 40.22723701 -2.13788447 32.0412387 -2.17623901 23.85058594 C-2.18371514 22.37302718 -2.1943695 20.89548091 -2.20828247 19.41796875 C-2.22627359 17.31238491 -2.23031068 15.2072147 -2.23046875 13.1015625 C-2.23457764 11.87775879 -2.23868652 10.65395508 -2.24291992 9.39306641 C-1.99622178 5.94722644 -1.23836505 3.21171218 0 0 Z M7 9 C6.91348389 10.41570123 6.89295096 11.835595 6.90234375 13.25390625 C6.90556641 14.10791016 6.90878906 14.96191406 6.91210938 15.84179688 C6.92048828 16.73962891 6.92886719 17.63746094 6.9375 18.5625 C6.94201172 19.46419922 6.94652344 20.36589844 6.95117188 21.29492188 C6.96299775 23.53001314 6.9794778 25.76497437 7 28 C9.71003427 28.1358035 12.41318941 28.23444624 15.125 28.3125 C15.88554687 28.35439453 16.64609375 28.39628906 17.4296875 28.43945312 C21.5959395 28.52924304 24.19489224 28.28883246 27.4921875 25.60546875 C30.255546 22.73450283 30.93298188 22.02761118 31.1875 18.125 C31.00322294 15.05371571 30.7058043 13.51381686 29 11 C24.22888084 7.81925389 19.8943734 7.86222992 14.25 7.875 C12.52523438 7.87113281 12.52523438 7.87113281 10.765625 7.8671875 C8.0908767 7.68499836 8.0908767 7.68499836 7 9 Z " fill="#696969" transform="translate(371,32)"/>
<path d="M0 0 C0.99 0 1.98 0 3 0 C10.85193622 15.56036446 10.85193622 15.56036446 11 24 C9.35 24 7.7 24 6 24 C5.67 22.68 5.34 21.36 5 20 C4.34 20 3.68 20 3 20 C2.93941406 21.15757813 2.87882813 22.31515625 2.81640625 23.5078125 C2.73194498 25.04688457 2.64729982 26.58594655 2.5625 28.125 C2.50352539 29.26582031 2.50352539 29.26582031 2.44335938 30.4296875 C2.2618538 33.66886383 2.03269758 36.80482843 1.49609375 40.0078125 C0.72316944 44.66970245 0.60851561 49.35863749 0.39453125 54.07421875 C0.10301492 59.79397016 0.10301492 59.79397016 -1 62 C-2.99954746 62.04254356 -5.00041636 62.04080783 -7 62 C-7.33 61.67 -7.66 61.34 -8 61 C-7.9877328 58.21227871 -7.90129188 55.46892202 -7.75 52.6875 C-7.70407715 51.83663818 -7.6581543 50.98577637 -7.61083984 50.10913086 C-7.07674017 41.51390738 -5.80998722 33.08621955 -4.41601562 24.59521484 C-3.9766659 21.85443575 -3.57017368 19.11031514 -3.171875 16.36328125 C-3.0382959 15.44474365 -2.9047168 14.52620605 -2.76708984 13.57983398 C-2.51054452 11.81005465 -2.25559743 10.04004272 -2.00244141 8.26977539 C-1.11148992 2.22297985 -1.11148992 2.22297985 0 0 Z " fill="#383939" transform="translate(241,31)"/>
<path d="M0 0 C5.15430776 -0.59702406 9.86122679 -0.85911379 15 0 C18.41147245 2.78967698 20.07600728 6.08547878 22 10 C22.91992475 11.55221803 23.85570897 13.09523097 24.8125 14.625 C25.19019531 15.27726562 25.56789062 15.92953125 25.95703125 16.6015625 C26.30121094 17.06304687 26.64539063 17.52453125 27 18 C29.12364481 18.22609337 29.12364481 18.22609337 30.625 16.5 C31.07875 16.005 31.5325 15.51 32 15 C31.3125 17.4375 31.3125 17.4375 30 20 C28.34178227 20.37309899 26.67422986 20.70700977 25 21 C23.54286376 23.15101064 23 24.40286494 23 27 C22.34 27 21.68 27 21 27 C21 28.65 21 30.3 21 32 C20.01 32.495 20.01 32.495 19 33 C18.8865625 32.25878906 18.773125 31.51757812 18.65625 30.75390625 C17.98275784 27.92764451 17.14349767 26.3068758 15.5 23.9375 C14.70142578 22.78507812 14.70142578 22.78507812 13.88671875 21.609375 C9.78515158 15.9368142 5.65762499 10.25603061 1.23046875 4.83203125 C0 3 0 3 0 0 Z " fill="#373839" transform="translate(166,32)"/>
<path d="M0 0 C2.60924787 1.00861682 3.79748847 1.66498092 5.265625 4.09375 C5.75289063 5.28484375 5.75289063 5.28484375 6.25 6.5 C6.58515625 7.2940625 6.9203125 8.088125 7.265625 8.90625 C8 11 8 11 8 13 C6.02 13.33 4.04 13.66 2 14 C2.2673999 14.56920166 2.5347998 15.13840332 2.81030273 15.72485352 C4.02897336 18.33303645 5.2332973 20.94760765 6.4375 23.5625 C6.85837891 24.45775391 7.27925781 25.35300781 7.71289062 26.27539062 C8.11572266 27.15517578 8.51855469 28.03496094 8.93359375 28.94140625 C9.30540771 29.74263916 9.67722168 30.54387207 10.06030273 31.36938477 C11 34 11 34 12 41 C4.74 41 -2.52 41 -10 41 C-10 38.69 -10 36.38 -10 34 C-13.00259517 33.66781808 -13.00259517 33.66781808 -14.6875 35.5 C-15.120625 35.995 -15.55375 36.49 -16 37 C-15.33521192 32.72014191 -13.85293973 28.9621195 -12.12890625 25.01953125 C-11.84651596 24.36546799 -11.56412567 23.71140472 -11.2731781 23.03752136 C-10.67793596 21.66239669 -10.08023832 20.28833259 -9.48022461 18.9152832 C-8.56220979 16.81183503 -7.65465515 14.70408875 -6.74804688 12.59570312 C-6.16728717 11.25754303 -5.58592766 9.91964306 -5.00390625 8.58203125 C-4.73300674 7.95182571 -4.46210724 7.32162018 -4.18299866 6.6723175 C-3.01246088 4.00977255 -2.07684697 2.07684697 0 0 Z M1 18 C-1.63406245 19.31703122 -1.82202149 20.4918763 -2.9453125 23.18359375 C-3.29980469 24.02857422 -3.65429688 24.87355469 -4.01953125 25.74414062 C-4.38433594 26.63294922 -4.74914062 27.52175781 -5.125 28.4375 C-5.49753906 29.32244141 -5.87007813 30.20738281 -6.25390625 31.11914062 C-8.24072618 35.4217174 -8.24072618 35.4217174 -9 40 C-6.04142591 40.05379226 -3.08382279 40.09357093 -0.125 40.125 C1.13763672 40.15013672 1.13763672 40.15013672 2.42578125 40.17578125 C3.23144531 40.18222656 4.03710938 40.18867187 4.8671875 40.1953125 C5.61081543 40.20578613 6.35444336 40.21625977 7.12060547 40.22705078 C9.24490235 40.1665597 9.24490235 40.1665597 11 38 C9.7192029 34.84963077 8.42357064 31.70558015 7.125 28.5625 C6.57779297 27.21575195 6.57779297 27.21575195 6.01953125 25.84179688 C5.66503906 24.98779297 5.31054688 24.13378906 4.9453125 23.25390625 C4.62062988 22.46314697 4.29594727 21.6723877 3.96142578 20.85766602 C3.14051805 18.82492892 3.14051805 18.82492892 1 18 Z " fill="#525253" transform="translate(330,31)"/>
<path d="M0 0 C4.76163526 4.34913955 8.21200331 9.3610127 11.8125 14.6875 C12.7087207 15.9878418 12.7087207 15.9878418 13.62304688 17.31445312 C18 23.74232143 18 23.74232143 18 26 C13.2523358 27.96854369 9.98886981 28.36060086 5 27 C0.00159919 23.12623937 -3.70422751 17.36631544 -7 12 C-7 11.34 -7 10.68 -7 10 C-10.62885324 9.84850702 -10.62885324 9.84850702 -14 11 C-13.34 9.35 -12.68 7.7 -12 6 C-10.68 6 -9.36 6 -8 6 C-7.67 6.66 -7.34 7.32 -7 8 C-4.50995496 7.43923199 -4.50995496 7.43923199 -2 6 C-0.62810173 2.97017694 -0.62810173 2.97017694 0 0 Z " fill="#444546" transform="translate(204,66)"/>
<path d="M0 0 C1.72974441 0.00015918 3.45949355 0.0058569 5.18920898 0.01586914 C6.09783188 0.01728409 7.00645477 0.01869904 7.94261169 0.02015686 C10.85687494 0.02577346 13.77106254 0.03832874 16.68530273 0.05102539 C18.65600475 0.05603825 20.62670797 0.06060153 22.59741211 0.06469727 C27.43923832 0.07574828 32.28100768 0.09302401 37.12280273 0.11352539 C37.12280273 2.75352539 37.12280273 5.39352539 37.12280273 8.11352539 C31.84280273 8.11352539 26.56280273 8.11352539 21.12280273 8.11352539 C21.13065796 10.46852173 21.13065796 10.46852173 21.13867188 12.87109375 C21.15671416 18.67252029 21.16823191 24.47394433 21.17773438 30.27539062 C21.18277637 32.79069434 21.18960976 35.30599511 21.19824219 37.82128906 C21.21031367 41.42782314 21.21603222 45.03431862 21.22045898 48.64086914 C21.22562027 49.77314438 21.23078156 50.90541962 21.23609924 52.07200623 C21.23621254 53.63351158 21.23621254 53.63351158 21.23632812 55.2265625 C21.23854874 56.1481163 21.24076935 57.0696701 21.24305725 58.01914978 C21.12280273 60.11352539 21.12280273 60.11352539 20.12280273 61.11352539 C17.81280273 61.11352539 15.50280273 61.11352539 13.12280273 61.11352539 C12.79280273 43.95352539 12.46280273 26.79352539 12.12280273 9.11352539 C6.84280273 8.78352539 1.56280273 8.45352539 -3.87719727 8.11352539 C-4.87719727 7.11352539 -4.87719727 7.11352539 -5.00219727 4.11352539 C-4.81520101 -0.37438485 -4.66872565 0.13670156 0 0 Z M16.12280273 2.11352539 C14.16922574 6.02067938 13.87629206 7.36024124 13.89575195 11.5246582 C13.89590302 12.60547668 13.89605408 13.68629517 13.89620972 14.79986572 C13.90653229 15.96040466 13.91685486 17.1209436 13.92749023 18.31665039 C13.93032013 19.50957703 13.93315002 20.70250366 13.93606567 21.93157959 C13.94726221 25.74233015 13.97236621 29.55284584 13.99780273 33.36352539 C14.0078332 35.94685533 14.01695893 38.53018895 14.02514648 41.11352539 C14.04719984 47.44693888 14.08067238 53.78021536 14.12280273 60.11352539 C16.10280273 60.11352539 18.08280273 60.11352539 20.12280273 60.11352539 C20.12280273 42.29352539 20.12280273 24.47352539 20.12280273 6.11352539 C25.40280273 6.11352539 30.68280273 6.11352539 36.12280273 6.11352539 C36.12280273 4.79352539 36.12280273 3.47352539 36.12280273 2.11352539 C29.52280273 2.11352539 22.92280273 2.11352539 16.12280273 2.11352539 Z " fill="#787878" transform="translate(530.877197265625,31.886474609375)"/>
<path d="M0 0 C1.98 0 3.96 0 6 0 C6 19.14 6 38.28 6 58 C4.02 58 2.04 58 0 58 C0 38.86 0 19.72 0 0 Z " fill="#2C2C2C" transform="translate(426,33)"/>
<path d="M0 0 C1.51815699 0.00015911 3.0363194 0.00585313 4.55444336 0.01586914 C5.35208603 0.01728409 6.1497287 0.01869904 6.97154236 0.02015686 C9.52916146 0.02577223 12.08669429 0.03832727 14.64428711 0.05102539 C16.37410356 0.05603841 18.10392137 0.06060166 19.83374023 0.06469727 C24.08312264 0.07574664 28.33244023 0.09302153 32.58178711 0.11352539 C32.58178711 2.75352539 32.58178711 5.39352539 32.58178711 8.11352539 C23.34178711 8.44352539 14.10178711 8.77352539 4.58178711 9.11352539 C4.91178711 14.39352539 5.24178711 19.67352539 5.58178711 25.11352539 C7.94657227 25.2044043 7.94657227 25.2044043 10.35913086 25.29711914 C12.41252654 25.38150526 14.46591142 25.46615422 16.51928711 25.55102539 C17.56020508 25.5903418 18.60112305 25.6296582 19.67358398 25.67016602 C21.15761719 25.73300781 21.15761719 25.73300781 22.67163086 25.79711914 C24.04629517 25.85210571 24.04629517 25.85210571 25.44873047 25.90820312 C27.58178711 26.11352539 27.58178711 26.11352539 28.58178711 27.11352539 C28.70678711 30.11352539 28.70678711 30.11352539 28.58178711 33.11352539 C26.96814791 34.72716459 25.1555094 34.31696641 22.92553711 34.39477539 C21.98581055 34.4321582 21.04608398 34.46954102 20.07788086 34.50805664 C18.08048503 34.57836914 16.08308919 34.64868164 14.08569336 34.71899414 C13.1459668 34.75637695 12.20624023 34.79375977 11.23803711 34.83227539 C10.36985352 34.86256836 9.50166992 34.89286133 8.60717773 34.92407227 C6.58684581 34.8957404 6.58684581 34.8957404 5.58178711 36.11352539 C5.34483563 38.80775144 5.16010109 41.4768715 5.01928711 44.17602539 C4.87491211 46.79540039 4.73053711 49.41477539 4.58178711 52.11352539 C13.82178711 52.11352539 23.06178711 52.11352539 32.58178711 52.11352539 C33.58178711 57.11352539 33.58178711 57.11352539 32.58178711 60.11352539 C20.37178711 60.11352539 8.16178711 60.11352539 -4.41821289 60.11352539 C-4.43915838 52.44514972 -4.45919647 44.77687708 -4.46996307 37.10849762 C-4.47525279 33.53781414 -4.48232628 29.96715424 -4.49365234 26.39648438 C-4.50655465 22.30346442 -4.51144195 18.21046959 -4.51586914 14.11743164 C-4.52103043 12.83203995 -4.52619171 11.54664825 -4.5315094 10.2223053 C-4.53158493 9.04115646 -4.53166046 7.86000763 -4.53173828 6.64306641 C-4.53395889 5.59715836 -4.5361795 4.55125031 -4.53846741 3.47364807 C-4.34697685 -0.28455753 -3.89358933 0.12931355 0 0 Z M-3.41821289 1.11352539 C-3.41821289 20.25352539 -3.41821289 39.39352539 -3.41821289 59.11352539 C8.13178711 59.11352539 19.68178711 59.11352539 31.58178711 59.11352539 C31.58178711 57.13352539 31.58178711 55.15352539 31.58178711 53.11352539 C22.34178711 53.11352539 13.10178711 53.11352539 3.58178711 53.11352539 C3.58178711 46.51352539 3.58178711 39.91352539 3.58178711 33.11352539 C11.17178711 33.11352539 18.76178711 33.11352539 26.58178711 33.11352539 C26.58178711 31.13352539 26.58178711 29.15352539 26.58178711 27.11352539 C18.66178711 27.11352539 10.74178711 27.11352539 2.58178711 27.11352539 C2.91178711 20.84352539 3.24178711 14.57352539 3.58178711 8.11352539 C12.82178711 7.78352539 22.06178711 7.45352539 31.58178711 7.11352539 C31.58178711 5.13352539 31.58178711 3.15352539 31.58178711 1.11352539 C20.03178711 1.11352539 8.48178711 1.11352539 -3.41821289 1.11352539 Z " fill="#D7D7D7" transform="translate(484.418212890625,31.886474609375)"/>
<path d="M0 0 C11.55 0 23.1 0 35 0 C35 0.33 35 0.66 35 1 C23.78 1 12.56 1 1 1 C1.33 18.82 1.66 36.64 2 55 C3.32 54.34 4.64 53.68 6 53 C6 45.74 6 38.48 6 31 C13.92 31 21.84 31 30 31 C30 31.33 30 31.66 30 32 C22.41 32 14.82 32 7 32 C7 38.6 7 45.2 7 52 C16.24 52 25.48 52 35 52 C35 53.98 35 55.96 35 58 C23.45 58 11.9 58 0 58 C0 38.86 0 19.72 0 0 Z " fill="#444444" transform="translate(481,33)"/>
<path d="M0 0 C2.01290353 8.30566989 2.56891497 16.49174287 3 25 C3.66 25 4.32 25 5 25 C5.797837 31.69613196 6.12910853 38.25766581 6 45 C3.69 45.66 1.38 46.32 -1 47 C-1.31606489 45.04223886 -1.62762832 43.08375094 -1.9375 41.125 C-2.11152344 40.03445312 -2.28554688 38.94390625 -2.46484375 37.8203125 C-3.64886655 29.36794538 -4.20398913 21.03501557 -4.25 12.5 C-4.270625 11.51257812 -4.29125 10.52515625 -4.3125 9.5078125 C-4.31765625 8.56679688 -4.3228125 7.62578125 -4.328125 6.65625 C-4.3374707 5.80869141 -4.34681641 4.96113281 -4.35644531 4.08789062 C-4.23881836 3.39888672 -4.12119141 2.70988281 -4 2 C-1 0 -1 0 0 0 Z " fill="#505252" transform="translate(289,47)"/>
<path d="M0 0 C0.66 0.33 1.32 0.66 2 1 C2.57836914 3.18969727 2.57836914 3.18969727 3.03515625 6.06640625 C3.20466797 7.10990234 3.37417969 8.15339844 3.54882812 9.22851562 C3.71833984 10.32873047 3.88785156 11.42894531 4.0625 12.5625 C4.23587891 13.63564453 4.40925781 14.70878906 4.58789062 15.81445312 C7.15790223 31.89425751 7.15790223 31.89425751 7.0625 38 C7.05347656 38.763125 7.04445313 39.52625 7.03515625 40.3125 C7.02355469 40.869375 7.01195312 41.42625 7 42 C4.78271803 38.67407705 4.701702 37.27793376 4.5 33.375 C4.14387781 28.05259197 3.29250665 23.17002659 2 18 C1.01 18.33 0.02 18.66 -1 19 C-1 23.29 -1 27.58 -1 32 C-1.33 32 -1.66 32 -2 32 C-2.33 30.02 -2.66 28.04 -3 26 C-8.6658801 37.86008986 -13.87768126 49.89635779 -19 62 C-20.33348058 57.99955825 -18.91619521 55.79446296 -17.2890625 52.13671875 C-17.00147064 51.46711624 -16.71387878 50.79751373 -16.41757202 50.10762024 C-15.4957505 47.96353918 -14.56151975 45.82519766 -13.625 43.6875 C-12.69663699 41.56012194 -11.77125911 39.4316416 -10.85385132 37.29951477 C-10.28287122 35.97322296 -9.70556972 34.64962885 -9.1210022 33.32926941 C-7.49620857 29.56364541 -6.50186687 26.06996083 -6 22 C-6.99 22 -7.98 22 -9 22 C-10.1510822 18.5467534 -9.91408422 18.18068178 -8.41796875 15.05859375 C-8.06283203 14.31029297 -7.70769531 13.56199219 -7.34179688 12.79101562 C-6.96087891 12.01435547 -6.57996094 11.23769531 -6.1875 10.4375 C-5.81818359 9.65697266 -5.44886719 8.87644531 -5.06835938 8.07226562 C-2.28899761 2.28899761 -2.28899761 2.28899761 0 0 Z " fill="#686969" transform="translate(286,30)"/>
<path d="M0 0 C5.04429421 1.29059546 8.06176849 3.4926084 11.6171875 7.15625 C12.11920685 7.65918579 12.6212262 8.16212158 13.13845825 8.68029785 C14.1901801 9.73803 15.23706938 10.80058722 16.27929688 11.86767578 C17.88046671 13.50559217 19.49730555 15.12670178 21.1171875 16.74609375 C29 24.70468917 29 24.70468917 29 27 C25.12758613 27.74152606 21.86234883 27.86569888 18 27 C12.12727371 22.70612223 7.62593894 17.85277925 5 11 C3.49754685 9.35547762 3.49754685 9.35547762 1.8125 8 C0.19921875 6.4921875 0.19921875 6.4921875 -1 5 C-0.875 2.125 -0.875 2.125 0 0 Z " fill="#5A5A5A" transform="translate(440,65)"/>
<path d="M0 0 C0.99 0.66 1.98 1.32 3 2 C2.40499898 6.76274588 0.9952462 10.85566008 -0.90625 15.2265625 C-1.19101196 15.89666351 -1.47577393 16.56676453 -1.76916504 17.25717163 C-2.67330292 19.38246547 -3.5860664 21.50390238 -4.5 23.625 C-5.41266349 25.75374546 -6.3234047 27.88327004 -7.23083496 30.01425171 C-7.79399068 31.33568397 -8.36033559 32.65576293 -8.93029785 33.97427368 C-10.20192244 36.94825853 -11.35389198 39.82396287 -12 43 C-13.32 42.67 -14.64 42.34 -16 42 C-17.19287411 38.12315913 -18 35.08378077 -18 31 C-17.21625 30.938125 -16.4325 30.87625 -15.625 30.8125 C-14.75875 30.544375 -13.8925 30.27625 -13 30 C-11.31634961 26.57799578 -10.50240634 23.08457364 -9.6875 19.375 C-5.92703202 3.95135468 -5.92703202 3.95135468 0 0 Z " fill="#434444" transform="translate(278,50)"/>
<path d="M0 0 C1.01320312 0.10441406 2.02640625 0.20882813 3.0703125 0.31640625 C1.48179439 5.1660586 -1.28650143 8.84009673 -4.3046875 12.87890625 C-4.78679687 13.53826172 -5.26890625 14.19761719 -5.765625 14.87695312 C-8.28381512 18.28129983 -10.81898403 21.4194715 -13.9296875 24.31640625 C-13.2696875 22.33640625 -12.6096875 20.35640625 -11.9296875 18.31640625 C-12.9196875 18.64640625 -13.9096875 18.97640625 -14.9296875 19.31640625 C-15.2596875 18.32640625 -15.5896875 17.33640625 -15.9296875 16.31640625 C-15.2696875 16.31640625 -14.6096875 16.31640625 -13.9296875 16.31640625 C-14.5896875 15.71828125 -15.2496875 15.12015625 -15.9296875 14.50390625 C-17.9296875 12.31640625 -17.9296875 12.31640625 -17.9296875 9.31640625 C-14.65429548 -0.11867823 -8.97176964 -0.64682538 0 0 Z " fill="#4F5051" transform="translate(218.9296875,31.68359375)"/>
<path d="M0 0 C4.29 0 8.58 0 13 0 C13.65470631 3.92823787 14.12705184 7.06241456 14.14526367 10.92871094 C14.15164352 11.85697693 14.15802338 12.78524292 14.16459656 13.74163818 C14.16570938 14.72924133 14.1668222 15.71684448 14.16796875 16.734375 C14.17296135 18.2841806 14.17296135 18.2841806 14.17805481 19.86529541 C14.18310608 22.0472367 14.18546369 24.22918568 14.18530273 26.41113281 C14.18748338 29.72474117 14.20564243 33.03801322 14.22460938 36.3515625 C14.22754495 38.47916554 14.22952865 40.60677014 14.23046875 42.734375 C14.23765427 43.71388123 14.24483978 44.69338745 14.25224304 45.70257568 C14.23157692 52.02255374 13.47311592 57.85417355 12 64 C10.68 63.67 9.36 63.34 8 63 C8.99 62.34 9.98 61.68 11 61 C11.4781212 58.37706711 11.4781212 58.37706711 11.43237305 55.26513672 C11.45216721 54.06404266 11.47196136 52.86294861 11.49235535 51.62545776 C11.50194023 49.67230148 11.50194023 49.67230148 11.51171875 47.6796875 C11.52855912 46.3373143 11.54670849 44.99495694 11.56611633 43.65261841 C11.61369307 40.11811266 11.64345225 36.58367107 11.66955566 33.0489502 C11.69932289 29.44266075 11.74586623 25.83659261 11.79101562 22.23046875 C11.87713573 15.15375823 11.94289169 8.07701272 12 1 C8.37 1 4.74 1 1 1 C1 12.88 1 24.76 1 37 C-2.23387334 35.38306333 -3.72002588 34.52804407 -6.11621094 32.11083984 C-6.69651062 31.5303891 -7.2768103 30.94993835 -7.87469482 30.35189819 C-8.48838928 29.72788116 -9.10208374 29.10386414 -9.734375 28.4609375 C-10.37240051 27.82008209 -11.01042603 27.17922668 -11.66778564 26.51895142 C-13.69994069 24.47562179 -15.72502218 22.42544018 -17.75 20.375 C-19.1284453 18.9865214 -20.50734636 17.5984951 -21.88671875 16.2109375 C-25.26311894 12.81251303 -28.63319288 9.40792746 -32 6 C-31.67 5.34 -31.34 4.68 -31 4 C-29.74340576 5.26444946 -29.74340576 5.26444946 -28.46142578 6.55444336 C-25.35913552 9.67480395 -22.25356127 12.79187823 -19.14697266 15.90795898 C-17.80166944 17.25829775 -16.45726419 18.60953175 -15.11376953 19.96166992 C-13.18496072 21.90257827 -11.25296869 23.84026735 -9.3203125 25.77734375 C-8.41709763 26.68830055 -8.41709763 26.68830055 -7.49563599 27.61766052 C-4.53349058 30.68370622 -4.53349058 30.68370622 -1 33 C-1.00785522 31.76697144 -1.00785522 31.76697144 -1.01586914 30.5090332 C-1.03668393 26.77686327 -1.04967455 23.04470558 -1.0625 19.3125 C-1.07087891 18.01892578 -1.07925781 16.72535156 -1.08789062 15.39257812 C-1.09111328 14.14541016 -1.09433594 12.89824219 -1.09765625 11.61328125 C-1.10551147 9.89298706 -1.10551147 9.89298706 -1.11352539 8.13793945 C-1 5 -1 5 0 0 Z " fill="#D3D4D5" transform="translate(75,32)"/>
<path d="M0 0 C0.66 0.33 1.32 0.66 2 1 C1.01 1.33 0.02 1.66 -1 2 C-0.66154053 2.7113208 -0.32308105 3.4226416 0.02563477 4.15551758 C1.54810783 7.36980241 3.05544344 10.5909601 4.5625 13.8125 C5.09552734 14.93205078 5.62855469 16.05160156 6.17773438 17.20507812 C6.67724609 18.27822266 7.17675781 19.35136719 7.69140625 20.45703125 C8.15748291 21.44678955 8.62355957 22.43654785 9.10375977 23.45629883 C10 26 10 26 9 29 C5.74696401 29.13568813 3.94646334 29.20785439 1 28 C-1.53372508 24.82996877 -2.99505611 21.28487453 -4.5625 17.5625 C-5.01173828 16.58216797 -5.46097656 15.60183594 -5.92382812 14.59179688 C-8.23251305 9.42304619 -8.23251305 9.42304619 -9 7 C-8.67 6.34 -8.34 5.68 -8 5 C-7.01 5.33 -6.02 5.66 -5 6 C-5 5.34 -5 4.68 -5 4 C-4.34 3.67 -3.68 3.34 -3 3 C-3 2.34 -3 1.68 -3 1 C-2.01 0.67 -1.02 0.34 0 0 Z " fill="#5C5C5C" transform="translate(400,64)"/>
<path d="M0 0 C2.27687802 2.8369941 3.83468917 5.57255422 5.26171875 8.9140625 C5.65810547 9.83960937 6.05449219 10.76515625 6.46289062 11.71875 C7.06907227 13.15734375 7.06907227 13.15734375 7.6875 14.625 C8.10322266 15.59179688 8.51894531 16.55859375 8.94726562 17.5546875 C12 24.73287408 12 24.73287408 12 27 C9.03 27 6.06 27 3 27 C2.16235732 25.04350603 1.33000941 23.08474444 0.5 21.125 C0.0359375 20.03445312 -0.428125 18.94390625 -0.90625 17.8203125 C-2 15 -2 15 -2 13 C-15.365 13.495 -15.365 13.495 -29 14 C-29.969375 16.124375 -30.93875 18.24875 -31.9375 20.4375 C-34.875 26.875 -34.875 26.875 -36 28 C-37.99958364 28.04080783 -40.00045254 28.04254356 -42 28 C-42.625 26.125 -42.625 26.125 -43 24 C-42.34 23.34 -41.68 22.68 -41 22 C-41 23.32 -41 24.64 -41 26 C-39.35 26 -37.7 26 -36 26 C-35.81824219 25.40832031 -35.63648438 24.81664063 -35.44921875 24.20703125 C-35.19785156 23.41683594 -34.94648438 22.62664062 -34.6875 21.8125 C-34.44386719 21.03519531 -34.20023437 20.25789063 -33.94921875 19.45703125 C-32.84376138 16.59557987 -31.90443818 14.42979184 -30 12 C-26.93725586 11.41650391 -26.93725586 11.41650391 -23.21484375 11.4765625 C-22.55795059 11.48126556 -21.90105743 11.48596863 -21.22425842 11.49081421 C-19.12760175 11.51214939 -17.03347969 11.56874822 -14.9375 11.625 C-13.52281027 11.64150822 -12.10809357 11.65585602 -10.69335938 11.66796875 C-0.39372651 11.80313675 -0.39372651 11.80313675 2 13 C3.40402827 9.95631106 3.40402827 9.95631106 1.5625 7.0625 C1.046875 6.051875 0.53125 5.04125 0 4 C0 2.68 0 1.36 0 0 Z " fill="#737474" transform="translate(347,65)"/>
<path d="M0 0 C3.93743833 -0.05797565 7.87476719 -0.09358789 11.8125 -0.125 C12.93205078 -0.14175781 14.05160156 -0.15851562 15.20507812 -0.17578125 C16.27822266 -0.18222656 17.35136719 -0.18867188 18.45703125 -0.1953125 C19.9416687 -0.21102295 19.9416687 -0.21102295 21.45629883 -0.22705078 C24 0 24 0 27 2 C18.42 2 9.84 2 1 2 C1 20.81 1 39.62 1 59 C2.65 59 4.3 59 6 59 C6 51.08 6 43.16 6 35 C10.62 35 15.24 35 20 35 C19.67 35.66 19.34 36.32 19 37 C15.37 36.67 11.74 36.34 8 36 C7.67 43.92 7.34 51.84 7 60 C4.69 60 2.38 60 0 60 C-2.0465936 57.9534064 -1.42803709 53.8106907 -1.5625 51 C-1.6035083 50.14583496 -1.6445166 49.29166992 -1.68676758 48.41162109 C-2.02831393 40.22723701 -2.13788447 32.0412387 -2.17623901 23.85058594 C-2.18371514 22.37302718 -2.1943695 20.89548091 -2.20828247 19.41796875 C-2.22627359 17.31238491 -2.23031068 15.2072147 -2.23046875 13.1015625 C-2.23457764 11.87775879 -2.23868652 10.65395508 -2.24291992 9.39306641 C-1.99622178 5.94722644 -1.23836505 3.21171218 0 0 Z " fill="#AAAAAA" transform="translate(371,32)"/>
<path d="M0 0 C0.33 0.99 0.66 1.98 1 3 C2.65 2.01 4.3 1.02 6 0 C6.12240231 7.05853347 5.95692115 14.07855763 5.5625 21.125 C5.52326416 21.87128662 5.48402832 22.61757324 5.44360352 23.38647461 C5.12159333 28.75681333 5.12159333 28.75681333 4 31 C2.00045254 31.04254356 -0.00041636 31.04080783 -2 31 C-2.33 30.67 -2.66 30.34 -3 30 C-2.96096043 27.02698628 -2.85518067 24.09146419 -2.6875 21.125 C-2.64117432 20.26543701 -2.59484863 19.40587402 -2.54711914 18.52026367 C-2.16831748 12.24019305 -1.42077524 6.13830081 0 0 Z " fill="#5A5B5D" transform="translate(236,62)"/>
<path d="M0 0 C1.68216214 0.00031737 3.36434441 0.01165683 5.04638672 0.03173828 C6.37390457 0.03598312 6.37390457 0.03598312 7.72824097 0.04031372 C10.56098834 0.05152838 13.39342206 0.07663508 16.22607422 0.10205078 C18.14403841 0.11207893 20.06200755 0.12120507 21.97998047 0.12939453 C26.68713298 0.15147189 31.39405038 0.18601033 36.10107422 0.22705078 C36.10107422 0.55705078 36.10107422 0.88705078 36.10107422 1.22705078 C23.23107422 1.22705078 10.36107422 1.22705078 -2.89892578 1.22705078 C-2.89892578 20.36705078 -2.89892578 39.50705078 -2.89892578 59.22705078 C9.97107422 59.22705078 22.84107422 59.22705078 36.10107422 59.22705078 C36.10107422 56.25705078 36.10107422 53.28705078 36.10107422 50.22705078 C36.43107422 50.22705078 36.76107422 50.22705078 37.10107422 50.22705078 C37.10107422 53.52705078 37.10107422 56.82705078 37.10107422 60.22705078 C31.28035799 60.25169716 25.45967188 60.26988508 19.63891602 60.28198242 C17.6571398 60.28702345 15.67536733 60.29385616 13.69360352 60.30249023 C10.85155313 60.31456593 8.00955175 60.32028123 5.16748047 60.32470703 C3.82998497 60.33244896 3.82998497 60.33244896 2.46546936 60.34034729 C0.34366821 60.34054255 -1.77803358 60.28915108 -3.89892578 60.22705078 C-4.89892578 59.22705078 -4.89892578 59.22705078 -5.01245117 57.47917175 C-5.00721436 56.71816666 -5.00197754 55.95716156 -4.99658203 55.1730957 C-4.99327881 54.3109697 -4.98997559 53.44884369 -4.98657227 52.56059265 C-4.97827393 51.61907852 -4.96997559 50.67756439 -4.96142578 49.70751953 C-4.95763916 48.73857254 -4.95385254 47.76962555 -4.94995117 46.77131653 C-4.93360906 42.61531406 -4.90581333 38.45940895 -4.87841797 34.3034668 C-4.86011965 31.27148367 -4.8465886 28.23954044 -4.83642578 25.20751953 C-4.83247803 24.23402557 -4.82853027 23.26053162 -4.82446289 22.25753784 C-4.8249843 16.18052383 -5.08163633 10.26269616 -5.87548828 4.23217773 C-5.88322266 3.57048584 -5.89095703 2.90879395 -5.89892578 2.22705078 C-3.89892578 0.22705078 -3.89892578 0.22705078 0 0 Z " fill="#B6B7B8" transform="translate(114.89892578125,31.77294921875)"/>
<path d="M0 0 C0.99 0.33 1.98 0.66 3 1 C2.67 3.64 2.34 6.28 2 9 C8.93 9 15.86 9 23 9 C23 9.33 23 9.66 23 10 C15.41 10 7.82 10 0 10 C0 9.01 0 8.02 0 7 C-0.66 7 -1.32 7 -2 7 C-2.12375 7.804375 -2.2475 8.60875 -2.375 9.4375 C-2.58125 10.283125 -2.7875 11.12875 -3 12 C-3.99 12.495 -3.99 12.495 -5 13 C-2.69 13 -0.38 13 2 13 C1.09507812 13.81210938 1.09507812 13.81210938 0.171875 14.640625 C-2.20535871 17.22308752 -3.37210517 19.53491207 -4.75 22.75 C-5.17796875 23.73484375 -5.6059375 24.7196875 -6.046875 25.734375 C-6.36140625 26.48203125 -6.6759375 27.2296875 -7 28 C-8.65 28 -10.3 28 -12 28 C-11.68150025 18.76350726 -8.65461196 8.95036091 -2.296875 2.078125 C-1.53890625 1.39234375 -0.7809375 0.7065625 0 0 Z " fill="#2B2C2E" transform="translate(318,63)"/>
<path d="M0 0 C0.33 0 0.66 0 1 0 C1 3.63 1 7.26 1 11 C-12.365 11.495 -12.365 11.495 -26 12 C-26 15.63 -26 19.26 -26 23 C-24.56785156 22.98839844 -23.13570313 22.97679688 -21.66015625 22.96484375 C-19.79427213 22.95546745 -17.92838661 22.94636708 -16.0625 22.9375 C-15.11697266 22.92912109 -14.17144531 22.92074219 -13.19726562 22.91210938 C-11.84858398 22.90727539 -11.84858398 22.90727539 -10.47265625 22.90234375 C-9.22367554 22.89448853 -9.22367554 22.89448853 -7.94946289 22.88647461 C-6 23 -6 23 -5 24 C-4.85689713 27.6691577 -4.95778338 31.32715441 -5 35 C-11.93 35 -18.86 35 -26 35 C-26 39.29 -26 43.58 -26 48 C-17.42 48 -8.84 48 0 48 C0 48.33 0 48.66 0 49 C-9.24 49 -18.48 49 -28 49 C-28 44.05 -28 39.1 -28 34 C-20.74 34 -13.48 34 -6 34 C-6 31.03 -6 28.06 -6 25 C-13.26 25 -20.52 25 -28 25 C-28 20.05 -28 15.1 -28 10 C-18.76 10 -9.52 10 0 10 C0 6.7 0 3.4 0 0 Z " fill="#CFCFD0" transform="translate(151,33)"/>
<path d="M0 0 C2.64 0 5.28 0 8 0 C8.19613594 3.02049342 8.38214855 6.04105658 8.5625 9.0625 C8.61857422 9.91005859 8.67464844 10.75761719 8.73242188 11.63085938 C9.02040528 16.60337287 8.89796753 21.09776245 8 26 C8.66 26.33 9.32 26.66 10 27 C9.72542969 27.53625 9.45085937 28.0725 9.16796875 28.625 C8.71338694 31.29262914 8.71338694 31.29262914 11.23828125 33.875 C12.25069252 34.92865273 13.2760801 35.96995415 14.3125 37 C20.5468465 43.33629179 20.5468465 43.33629179 22 47 C21.56429688 46.62488281 21.12859375 46.24976563 20.6796875 45.86328125 C19.78636719 45.09564453 19.78636719 45.09564453 18.875 44.3125 C18.29492188 43.81363281 17.71484375 43.31476563 17.1171875 42.80078125 C14.4280912 40.51356096 11.71452807 38.25698014 9 36 C8.97494385 36.72179443 8.9498877 37.44358887 8.92407227 38.18725586 C8.80848698 41.437535 8.68559226 44.68749688 8.5625 47.9375 C8.52318359 49.07380859 8.48386719 50.21011719 8.44335938 51.38085938 C8.40146484 52.46044922 8.35957031 53.54003906 8.31640625 54.65234375 C8.26141968 56.15269165 8.26141968 56.15269165 8.20532227 57.68334961 C8 60 8 60 7 61 C4.69 60.67 2.38 60.34 0 60 C0 40.2 0 20.4 0 0 Z M1 1 C1 20.14 1 39.28 1 59 C2.98 59 4.96 59 7 59 C7 39.86 7 20.72 7 1 C5.02 1 3.04 1 1 1 Z " fill="#D9D9D9" transform="translate(425,32)"/>
<path d="M0 0 C2.42102911 1.18098981 3.82068009 2.2331559 5.5625 4.25 C5.2325 4.91 4.9025 5.57 4.5625 6.25 C3.985 5.610625 3.4075 4.97125 2.8125 4.3125 C0.54946351 1.90903372 0.54946351 1.90903372 -3.4375 1.25 C-3.4375 21.05 -3.4375 40.85 -3.4375 61.25 C0.1925 61.25 3.8225 61.25 7.5625 61.25 C7.5625 49.7 7.5625 38.15 7.5625 26.25 C8.2225 26.25 8.8825 26.25 9.5625 26.25 C10.95188077 28.21147874 12.2885411 30.21166576 13.5625 32.25 C11.5825 32.745 11.5825 32.745 9.5625 33.25 C9.2325 42.82 8.9025 52.39 8.5625 62.25 C2.6225 62.745 2.6225 62.745 -3.4375 63.25 C-7.96215095 58.72534905 -5.56505527 41.17467117 -5.57537842 34.98687744 C-5.57460066 32.91817083 -5.57207775 30.8494642 -5.56787109 28.78076172 C-5.56245283 25.5972836 -5.56787425 22.4139429 -5.57421875 19.23046875 C-5.57355893 17.20312469 -5.57227977 15.17578071 -5.5703125 13.1484375 C-5.57233673 12.19850922 -5.57436096 11.24858093 -5.57644653 10.26986694 C-5.57329437 9.39109894 -5.57014221 8.51233093 -5.56689453 7.60693359 C-5.56609894 6.83562103 -5.56530334 6.06430847 -5.56448364 5.2696228 C-5.4375 3.25 -5.4375 3.25 -4.4375 0.25 C-2.4375 -0.75 -2.4375 -0.75 0 0 Z " fill="#BFBFC0" transform="translate(37.4375,29.75)"/>
<path d="M0 0 C1.72974441 0.00015918 3.45949355 0.0058569 5.18920898 0.01586914 C6.09783188 0.01728409 7.00645477 0.01869904 7.94261169 0.02015686 C10.85687494 0.02577346 13.77106254 0.03832874 16.68530273 0.05102539 C18.65600475 0.05603825 20.62670797 0.06060153 22.59741211 0.06469727 C27.43923832 0.07574828 32.28100768 0.09302401 37.12280273 0.11352539 C37.12280273 0.44352539 37.12280273 0.77352539 37.12280273 1.11352539 C23.92280273 1.44352539 10.72280273 1.77352539 -2.87719727 2.11352539 C-2.87719727 3.76352539 -2.87719727 5.41352539 -2.87719727 7.11352539 C2.73280273 7.11352539 8.34280273 7.11352539 14.12280273 7.11352539 C14.12280273 24.60352539 14.12280273 42.09352539 14.12280273 60.11352539 C16.10280273 60.11352539 18.08280273 60.11352539 20.12280273 60.11352539 C20.12280273 60.44352539 20.12280273 60.77352539 20.12280273 61.11352539 C17.81280273 61.11352539 15.50280273 61.11352539 13.12280273 61.11352539 C12.79280273 43.95352539 12.46280273 26.79352539 12.12280273 9.11352539 C6.84280273 8.78352539 1.56280273 8.45352539 -3.87719727 8.11352539 C-4.87719727 7.11352539 -4.87719727 7.11352539 -5.00219727 4.11352539 C-4.81520101 -0.37438485 -4.66872565 0.13670156 0 0 Z " fill="#B8B8B8" transform="translate(530.877197265625,31.886474609375)"/>
<path d="M0 0 C-0.58978538 3.34762915 -1.66376912 5.07317714 -3.984375 7.53125 C-4.59023438 8.17707031 -5.19609375 8.82289062 -5.8203125 9.48828125 C-6.45710938 10.15214844 -7.09390625 10.81601562 -7.75 11.5 C-8.37132812 12.16386719 -8.99265625 12.82773437 -9.6328125 13.51171875 C-12.90181874 16.9669342 -16.17909559 20.1416135 -20 23 C-18.4744094 19.34858644 -16.27519091 17.09881888 -13.4375 14.375 C-10.30957946 11.48929319 -10.30957946 11.48929319 -8 8 C-8.99 7.67 -9.98 7.34 -11 7 C-11.33 6.67 -11.66 6.34 -12 6 C-15.68289111 9.58214333 -19.22989347 13.21216287 -22.5625 17.125 C-25.46267816 20.49760537 -28.49647421 23.26554084 -32 26 C-30.58261511 22.74792908 -28.87473588 20.68638933 -26.3125 18.25 C-23.53690409 15.54969151 -20.90033002 12.81090706 -18.375 9.875 C-17.80265625 9.22273438 -17.2303125 8.57046875 -16.640625 7.8984375 C-15.58367349 6.67539361 -14.55008599 5.43156026 -13.546875 4.1640625 C-9.50691015 -0.56402823 -6.03392047 -0.72407046 0 0 Z " fill="#A4A4A4" transform="translate(467,32)"/>
<path d="M0 0 C11.88 0 23.76 0 36 0 C36 2.64 36 5.28 36 8 C26.76 8.33 17.52 8.66 8 9 C8.33 14.28 8.66 19.56 9 25 C16.26 25.33 23.52 25.66 31 26 C31 26.33 31 26.66 31 27 C22.75 27 14.5 27 6 27 C5.9690625 22.3284375 5.9690625 22.3284375 5.9375 17.5625 C5.928396 16.57967041 5.91929199 15.59684082 5.90991211 14.58422852 C5.90741455 13.81522217 5.90491699 13.04621582 5.90234375 12.25390625 C5.89710693 11.46314697 5.89187012 10.6723877 5.88647461 9.85766602 C6 8 6 8 7 7 C9.07262076 6.91232888 11.14820294 6.89304127 13.22265625 6.90234375 C14.48271484 6.90556641 15.74277344 6.90878906 17.04101562 6.91210938 C18.38151109 6.92046597 19.72200588 6.92893093 21.0625 6.9375 C22.40689942 6.9425134 23.7513006 6.94707658 25.09570312 6.95117188 C28.39717941 6.96300512 31.69856803 6.97949029 35 7 C35 5.02 35 3.04 35 1 C23.45 1 11.9 1 0 1 C0 0.67 0 0.34 0 0 Z " fill="#CCCCCC" transform="translate(481,32)"/>
<path d="M0 0 C0.66 0 1.32 0 2 0 C2.33 1.32 2.66 2.64 3 4 C4.65 4 6.3 4 8 4 C8.33 2.68 8.66 1.36 9 0 C9.86355778 1.95421035 10.71559934 3.91351347 11.5625 5.875 C12.03816406 6.96554688 12.51382812 8.05609375 13.00390625 9.1796875 C13.33261719 10.11039063 13.66132813 11.04109375 14 12 C13.67 12.66 13.34 13.32 13 14 C11.0625 13.625 11.0625 13.625 9 13 C8.67 12.34 8.34 11.68 8 11 C8.33 13.64 8.66 16.28 9 19 C6.95695845 16.56780768 5.61644954 14.23581365 4.4375 11.3125 C3.38993022 7.92727108 3.38993022 7.92727108 1 7 C0.95101562 7.62003906 0.90203125 8.24007812 0.8515625 8.87890625 C0.16920422 16.9613224 -0.88353762 24.96797454 -2 33 C-2.33 33 -2.66 33 -3 33 C-3.22479546 25.49224793 -2.54907902 18.30361363 -1.5 10.875 C-1.35691406 9.823125 -1.21382812 8.77125 -1.06640625 7.6875 C-0.71685503 5.12412438 -0.36129594 2.56174192 0 0 Z " fill="#656668" transform="translate(244,51)"/>
<path d="M0 0 C3.44813647 3.06501019 5.58245192 6.43052119 7.8515625 10.390625 C8.42003906 11.18726563 8.42003906 11.18726563 9 12 C11.12364481 12.22609337 11.12364481 12.22609337 12.625 10.5 C13.305625 9.7575 13.305625 9.7575 14 9 C13.3125 11.4375 13.3125 11.4375 12 14 C10.34178227 14.37309899 8.67422986 14.70700977 7 15 C5.54286376 17.15101064 5 18.40286494 5 21 C4.34 21 3.68 21 3 21 C3 22.65 3 24.3 3 26 C2.34 26.33 1.68 26.66 1 27 C0.9175 26.29875 0.835 25.5975 0.75 24.875 C-0.17027725 21.34727053 -1.88126977 18.93888386 -4 16 C-3 14 -3 14 -0.375 11.75 C2.36490396 9.21062398 2.36490396 9.21062398 1.875 5.875 C1.2764738 3.90841391 0.65005342 1.95016025 0 0 Z " fill="#6D6E6F" transform="translate(184,38)"/>
<path d="M0 0 C0.33 0.66 0.66 1.32 1 2 C1.99 2 2.98 2 4 2 C5.33912585 5.12254943 6.67030658 8.24842358 8 11.375 C8.3815625 12.26445313 8.763125 13.15390625 9.15625 14.0703125 C9.69765625 15.34648438 9.69765625 15.34648438 10.25 16.6484375 C10.58515625 17.43395996 10.9203125 18.21948242 11.265625 19.02880859 C12 21 12 21 12 23 C10.68 22.67 9.36 22.34 8 22 C7.67 20.02 7.34 18.04 7 16 C6.01 18.475 6.01 18.475 5 21 C2.38333372 18.38333372 1.28365993 15.35651983 -0.125 12 C-0.54072266 11.03707031 -0.54072266 11.03707031 -0.96484375 10.0546875 C-3 5.26254618 -3 5.26254618 -3 3 C-1.5 1.375 -1.5 1.375 0 0 Z " fill="#404042" transform="translate(335,42)"/>
<path d="M0 0 C1.12003991 2.80684699 1.01585114 3.95257546 0.0390625 6.875 C-0.42757813 7.90625 -0.89421875 8.9375 -1.375 10 C-3.56116486 14.87497449 -3.56116486 14.87497449 -5 20 C-6.32 19.67 -7.64 19.34 -9 19 C-10.19287411 15.12315913 -11 12.08378077 -11 8 C-10.236875 7.95875 -9.47375 7.9175 -8.6875 7.875 C-5.68365462 7.2381557 -5.68365462 7.2381557 -4.375 4 C-3.694375 2.515 -3.694375 2.515 -3 1 C-2.01 0.67 -1.02 0.34 0 0 Z " fill="#3B3C3B" transform="translate(271,73)"/>
<path d="M0 0 C0.70125 0.28875 1.4025 0.5775 2.125 0.875 C1.65700031 3.28185554 1.19221711 5.64646183 0.5 8 C-0.0791405 10.08947673 -0.0791405 10.08947673 1.125 12.875 C0.50625 12.99875 -0.1125 13.1225 -0.75 13.25 C-3.06620832 13.74697356 -3.06620832 13.74697356 -4.875 15.875 C-8.87890625 11.578125 -8.87890625 11.578125 -9.875 9.875 C-9.51993977 5.84309387 -7.31072561 3.70526453 -4.5078125 1.00390625 C-2.875 -0.125 -2.875 -0.125 0 0 Z " fill="#434343" transform="translate(442.875,53.125)"/>
<path d="M0 0 C0.66 0 1.32 0 2 0 C3.67826923 3.91179561 5.34057804 7.83017624 7 11.75 C7.47695313 12.86117187 7.95390625 13.97234375 8.4453125 15.1171875 C8.89648438 16.18710937 9.34765625 17.25703125 9.8125 18.359375 C10.23144531 19.34389648 10.65039062 20.32841797 11.08203125 21.34277344 C12 24 12 24 12 28 C4.74 28 -2.52 28 -10 28 C-9.27744006 22.94208043 -8.86490448 20.10210735 -6.93359375 15.72265625 C-6.53076172 14.79775391 -6.12792969 13.87285156 -5.71289062 12.91992188 C-5.29201172 11.97697266 -4.87113281 11.03402344 -4.4375 10.0625 C-4.01275391 9.09248047 -3.58800781 8.12246094 -3.15039062 7.12304688 C-2.10789047 4.74520943 -1.05762761 2.37113802 0 0 Z M1 5 C-1.63406245 6.31703122 -1.82202149 7.4918763 -2.9453125 10.18359375 C-3.29980469 11.02857422 -3.65429688 11.87355469 -4.01953125 12.74414062 C-4.38433594 13.63294922 -4.74914062 14.52175781 -5.125 15.4375 C-5.49753906 16.32244141 -5.87007813 17.20738281 -6.25390625 18.11914062 C-8.24072618 22.4217174 -8.24072618 22.4217174 -9 27 C-6.04142591 27.05379226 -3.08382279 27.09357093 -0.125 27.125 C1.13763672 27.15013672 1.13763672 27.15013672 2.42578125 27.17578125 C3.23144531 27.18222656 4.03710938 27.18867187 4.8671875 27.1953125 C5.61081543 27.20578613 6.35444336 27.21625977 7.12060547 27.22705078 C9.24490235 27.1665597 9.24490235 27.1665597 11 25 C9.7192029 21.84963077 8.42357064 18.70558015 7.125 15.5625 C6.57779297 14.21575195 6.57779297 14.21575195 6.01953125 12.84179688 C5.66503906 11.98779297 5.31054688 11.13378906 4.9453125 10.25390625 C4.62062988 9.46314697 4.29594727 8.6723877 3.96142578 7.85766602 C3.14051805 5.82492892 3.14051805 5.82492892 1 5 Z " fill="#C6C7C7" transform="translate(330,44)"/>
<path d="M0 0 C1.68216214 0.00031737 3.36434441 0.01165683 5.04638672 0.03173828 C6.37390457 0.03598312 6.37390457 0.03598312 7.72824097 0.04031372 C10.56098834 0.05152838 13.39342206 0.07663508 16.22607422 0.10205078 C18.14403841 0.11207893 20.06200755 0.12120507 21.97998047 0.12939453 C26.68713298 0.15147189 31.39405038 0.18601033 36.10107422 0.22705078 C36.10107422 0.55705078 36.10107422 0.88705078 36.10107422 1.22705078 C23.23107422 1.22705078 10.36107422 1.22705078 -2.89892578 1.22705078 C-2.89892578 9.47705078 -2.89892578 17.72705078 -2.89892578 26.22705078 C-3.55892578 26.22705078 -4.21892578 26.22705078 -4.89892578 26.22705078 C-4.88152344 25.13650391 -4.88152344 25.13650391 -4.86376953 24.02392578 C-4.80504195 17.47999582 -5.10767554 11.12630283 -5.87548828 4.62548828 C-5.88708984 3.43826172 -5.88708984 3.43826172 -5.89892578 2.22705078 C-3.89892578 0.22705078 -3.89892578 0.22705078 0 0 Z " fill="#D3D3D3" transform="translate(114.89892578125,31.77294921875)"/>
<path d="M0 0 C0.33 0 0.66 0 1 0 C1 3.63 1 7.26 1 11 C-12.365 11.495 -12.365 11.495 -26 12 C-26 15.63 -26 19.26 -26 23 C-19.4 23 -12.8 23 -6 23 C-6 23.33 -6 23.66 -6 24 C-13.26 24 -20.52 24 -28 24 C-28 19.38 -28 14.76 -28 10 C-18.76 10 -9.52 10 0 10 C0 6.7 0 3.4 0 0 Z " fill="#DEDEDF" transform="translate(151,33)"/>
<path d="M0 0 C0.99 0.33 1.98 0.66 3 1 C2.33501617 5.38889325 0.81242323 8.9811485 -1 13 C-1.5775 12.7525 -2.155 12.505 -2.75 12.25 C-3.4925 12.1675 -4.235 12.085 -5 12 C-7.27144074 13.85432087 -7.27144074 13.85432087 -9 16 C-8.1483591 10.37917005 -6.57122926 5.57122926 -2.5 1.5 C-1.675 1.005 -0.85 0.51 0 0 Z " fill="#4A4A4A" transform="translate(323,52)"/>
<path d="M0 0 C-1.49128001 3.79598549 -3.65733441 5.71720399 -7 8 C-7.99 8 -8.98 8 -10 8 C-9.67 9.32 -9.34 10.64 -9 12 C-9.99 11.67 -10.98 11.34 -12 11 C-12 11.66 -12 12.32 -12 13 C-13.32 12.67 -14.64 12.34 -16 12 C-15.67 11.01 -15.34 10.02 -15 9 C-14.34 9 -13.68 9 -13 9 C-13 8.34 -13 7.68 -13 7 C-12.34 7 -11.68 7 -11 7 C-11.33 5.68 -11.66 4.36 -12 3 C-10.68 3 -9.36 3 -8 3 C-7.67 2.01 -7.34 1.02 -7 0 C-2.25 -1.125 -2.25 -1.125 0 0 Z " fill="#2F2F2F" transform="translate(407,57)"/>
<path d="M0 0 C0.66 0 1.32 0 2 0 C2 4.29 2 8.58 2 13 C1.67 13 1.34 13 1 13 C0.67 11.02 0.34 9.04 0 7 C-5.6658801 18.86008986 -10.87768126 30.89635779 -16 43 C-17.31978067 39.040658 -15.98088324 36.87552622 -14.39453125 33.2421875 C-14.11405441 32.57970001 -13.83357758 31.91721252 -13.54460144 31.23464966 C-12.6428256 29.11083386 -11.72781721 26.99300984 -10.8125 24.875 C-10.21463318 23.47172094 -9.61761845 22.06807853 -9.02148438 20.6640625 C-6.07772525 13.74789507 -3.07759146 6.85775962 0 0 Z " fill="#C7C7C7" transform="translate(283,49)"/>
<path d="M0 0 C2.63330954 2.63330954 5.08628398 5.19131227 7.5 8 C9.90700946 10.77453133 12.34800374 13.45408359 15 16 C14.67 16.66 14.34 17.32 14 18 C13.21753906 17.2059375 12.43507813 16.411875 11.62890625 15.59375 C10.60690222 14.56236979 9.58475966 13.53112684 8.5625 12.5 C8.04623047 11.97535156 7.52996094 11.45070313 6.99804688 10.91015625 C5.68423213 9.58775448 4.34406495 8.29164432 3 7 C2.67 7 2.34 7 2 7 C1.97494385 7.72179443 1.9498877 8.44358887 1.92407227 9.18725586 C1.80848698 12.437535 1.68559226 15.68749688 1.5625 18.9375 C1.52318359 20.07380859 1.48386719 21.21011719 1.44335938 22.38085938 C1.40146484 23.46044922 1.35957031 24.54003906 1.31640625 25.65234375 C1.27974854 26.65257568 1.24309082 27.65280762 1.20532227 28.68334961 C1 31 1 31 0 32 C-1.66617115 32.04063832 -3.33388095 32.042721 -5 32 C-5.33 31.34 -5.66 30.68 -6 30 C-4.02 30 -2.04 30 0 30 C0 20.1 0 10.2 0 0 Z " fill="#C7C7C7" transform="translate(432,61)"/>
<path d="M0 0 C1.15733643 0.02618408 2.31467285 0.05236816 3.50708008 0.0793457 C4.76069336 0.09545898 6.01430664 0.11157227 7.3059082 0.12817383 C8.61624023 0.17006836 9.92657227 0.21196289 11.27661133 0.25512695 C12.61185661 0.28021034 13.94714662 0.30302347 15.2824707 0.32348633 C18.5524784 0.38251174 21.82023466 0.46481219 25.08911133 0.56762695 C25.08911133 0.89762695 25.08911133 1.22762695 25.08911133 1.56762695 C11.72411133 2.06262695 11.72411133 2.06262695 -1.91088867 2.56762695 C-2.88026367 4.69200195 -3.84963867 6.81637695 -4.84838867 9.00512695 C-7.78588867 15.44262695 -7.78588867 15.44262695 -8.91088867 16.56762695 C-10.91047231 16.60843478 -12.91134121 16.61017052 -14.91088867 16.56762695 C-15.53588867 14.69262695 -15.53588867 14.69262695 -15.91088867 12.56762695 C-15.25088867 11.90762695 -14.59088867 11.24762695 -13.91088867 10.56762695 C-13.91088867 11.88762695 -13.91088867 13.20762695 -13.91088867 14.56762695 C-12.26088867 14.56762695 -10.61088867 14.56762695 -8.91088867 14.56762695 C-8.63825195 13.68010742 -8.63825195 13.68010742 -8.36010742 12.7746582 C-8.10874023 11.98446289 -7.85737305 11.19426758 -7.59838867 10.38012695 C-7.35475586 9.60282227 -7.11112305 8.82551758 -6.86010742 8.0246582 C-4.06629277 0.79293221 -4.06629277 0.79293221 0 0 Z " fill="#C6C7C7" transform="translate(319.910888671875,76.432373046875)"/>
<path d="M0 0 C5.54334038 2.77167019 5.54334038 2.77167019 6.84375 6.26953125 C7.32370672 8.51050564 7.7181856 10.72604935 8 13 C6.68 13.33 5.36 13.66 4 14 C3.13116294 12.42466914 2.28040932 10.83935491 1.4375 9.25 C0.96183594 8.36828125 0.48617187 7.4865625 -0.00390625 6.578125 C-1.07998186 3.79298812 -1.06528748 2.73019786 0 0 Z " fill="#242526" transform="translate(252,61)"/>
<path d="M0 0 C0.66 0 1.32 0 2 0 C2.69937202 1.4317616 3.38412718 2.87067032 4.0625 4.3125 C4.63677734 5.51326172 4.63677734 5.51326172 5.22265625 6.73828125 C6 9 6 9 5 12 C4.71125 11.360625 4.4225 10.72125 4.125 10.0625 C3.17176549 7.84793921 3.17176549 7.84793921 1 7 C0.95101562 7.62003906 0.90203125 8.24007812 0.8515625 8.87890625 C0.16920422 16.9613224 -0.88353762 24.96797454 -2 33 C-2.33 33 -2.66 33 -3 33 C-3.22479546 25.49224793 -2.54907902 18.30361363 -1.5 10.875 C-1.35691406 9.823125 -1.21382812 8.77125 -1.06640625 7.6875 C-0.71685503 5.12412438 -0.36129594 2.56174192 0 0 Z " fill="#D4D4D5" transform="translate(244,51)"/>
<path d="M0 0 C2.31 0 4.62 0 7 0 C7.66 1.32 8.32 2.64 9 4 C8.34 4.66 7.68 5.32 7 6 C6.67 6.66 6.34 7.32 6 8 C4.68 8 3.36 8 2 8 C1.67 8.66 1.34 9.32 1 10 C-0.32 8.35 -1.64 6.7 -3 5 C-2.34 4.67 -1.68 4.34 -1 4 C-0.34786708 1.97536745 -0.34786708 1.97536745 0 0 Z " fill="#2A2B2C" transform="translate(196,65)"/>
<path d="M0 0 C1.32 0 2.64 0 4 0 C3.52269162 1.4589426 3.04308958 2.91713496 2.5625 4.375 C2.29566406 5.18710938 2.02882813 5.99921875 1.75390625 6.8359375 C1 9 1 9 0 11 C-1.65 11 -3.3 11 -5 11 C-4.46949266 6.49068763 -2.8595705 3.51318661 0 0 Z " fill="#232323" transform="translate(311,80)"/>
<path d="M0 0 C0.87840996 3.09720845 0.99435406 4.90645403 0 8 C2.31 8 4.62 8 7 8 C4.7129405 10.63891481 3.32389807 11.90084753 -0.0625 12.9375 C-3.65940854 14.23850947 -4.39737025 15.61667052 -6 19 C-7 17 -7 17 -6.47094727 15.21240234 C-6.17244873 14.51066895 -5.8739502 13.80893555 -5.56640625 13.0859375 C-5.24736328 12.32539062 -4.92832031 11.56484375 -4.59960938 10.78125 C-4.25736328 9.9871875 -3.91511719 9.193125 -3.5625 8.375 C-3.22412109 7.57320313 -2.88574219 6.77140625 -2.53710938 5.9453125 C-1.69833222 3.96060036 -0.85004755 1.97991125 0 0 Z " fill="#808182" transform="translate(313,68)"/>
<path d="M0 0 C2.43868168 -0.1079859 4.87259133 -0.18726589 7.3125 -0.25 C8.00279297 -0.28351562 8.69308594 -0.31703125 9.40429688 -0.3515625 C11.42578125 -0.390625 11.42578125 -0.390625 15 0 C16.98046875 2.015625 16.98046875 2.015625 18 4 C17.67 4.66 17.34 5.32 17 6 C16.34 5.67 15.68 5.34 15 5 C15 4.01 15 3.02 15 2 C11.7 2.33 8.4 2.66 5 3 C5 4.65 5 6.3 5 8 C2.5 5.6875 2.5 5.6875 0 3 C0 2.01 0 1.02 0 0 Z " fill="#9B9D9C" transform="translate(166,32)"/>
<path d="M0 0 C0.66 0 1.32 0 2 0 C2.268125 0.598125 2.53625 1.19625 2.8125 1.8125 C3.8893979 4.04327908 3.8893979 4.04327908 5.625 5.625 C6.07875 6.07875 6.5325 6.5325 7 7 C7 7.66 7 8.32 7 9 C4.03 9 1.06 9 -2 9 C-2.25 3.375 -2.25 3.375 0 0 Z " fill="#525252" transform="translate(352,83)"/>
<path d="M0 0 C0.99 0 1.98 0 3 0 C2.67902344 0.56074219 2.35804688 1.12148438 2.02734375 1.69921875 C0.89810898 4.22818938 0.70220724 6.05645724 0.5625 8.8125 C0.03593157 16.00893525 -1.48914883 22.95886342 -3 30 C-3.33 30 -3.66 30 -4 30 C-3.63994253 19.63282798 -2.77688539 10.0421956 0 0 Z " fill="#BCBDBD" transform="translate(241,31)"/>
<path d="M0 0 C0.66 0 1.32 0 2 0 C3.38938077 1.96147874 4.7260411 3.96166576 6 6 C4.68 6.33 3.36 6.66 2 7 C1.67 15.25 1.34 23.5 1 32 C0.67 32 0.34 32 0 32 C0 21.44 0 10.88 0 0 Z " fill="#D1D2D2" transform="translate(45,56)"/>
<path d="M0 0 C0.95465783 2.16967689 1.14401212 3.56328793 0.3984375 5.82421875 C-0.35870385 7.5684743 -1.17609198 9.28627131 -2 11 C-2.99 10.67 -3.98 10.34 -5 10 C-5.36768802 4.48467967 -5.36768802 4.48467967 -3.625 2.1875 C-2 1 -2 1 0 0 Z " fill="#262727" transform="translate(271,73)"/>
<path d="M0 0 C0.66 0 1.32 0 2 0 C3.03275341 2.26607052 4.05133551 4.53681939 5.0625 6.8125 C5.50432617 7.77639648 5.50432617 7.77639648 5.95507812 8.75976562 C8.11328125 13.66015625 8.11328125 13.66015625 7 17 C5.35 13.37 3.7 9.74 2 6 C1.01 6 0.02 6 -1 6 C-1.33 6.99 -1.66 7.98 -2 9 C-1.125 2.25 -1.125 2.25 0 0 Z " fill="#CECDCE" transform="translate(330,44)"/>
<path d="M0 0 C1.5 1.375 1.5 1.375 3 3 C3 3.66 3 4.32 3 5 C-1.76225307 6.97459273 -4.96785319 7.06449259 -10 6 C-10.66 5.67 -11.32 5.34 -12 5 C-11.67 4.34 -11.34 3.68 -11 3 C-7.04 3.33 -3.08 3.66 1 4 C0.67 2.68 0.34 1.36 0 0 Z " fill="#CCCDCD" transform="translate(219,87)"/>
<path d="M0 0 C0.598125 0.20625 1.19625 0.4125 1.8125 0.625 C1.3331753 4.93892226 0.0667015 6.79069547 -3.1875 9.625 C-2.5275 7.645 -1.8675 5.665 -1.1875 3.625 C-2.1775 3.955 -3.1675 4.285 -4.1875 4.625 C-4.5175 3.635 -4.8475 2.645 -5.1875 1.625 C-2.1875 -0.375 -2.1875 -0.375 0 0 Z " fill="#656568" transform="translate(208.1875,46.375)"/>
<path d="M0 0 C1.1446875 0.3403125 1.1446875 0.3403125 2.3125 0.6875 C2.3125 1.3475 2.3125 2.0075 2.3125 2.6875 C0.9203125 3.0278125 0.9203125 3.0278125 -0.5 3.375 C-4.19469183 4.8963437 -5.01232761 6.15102496 -6.6875 9.6875 C-7.6875 7.6875 -7.6875 7.6875 -6.9375 5.25 C-4.14160628 -0.48158213 -4.14160628 -0.48158213 0 0 Z " fill="#59595A" transform="translate(313.6875,77.3125)"/>
<path d="M0 0 C3.99996286 1.33332095 4.83782337 3.4957827 7 7 C6.67 7.66 6.34 8.32 6 9 C5.34 7.68 4.68 6.36 4 5 C0.37114676 4.84850702 0.37114676 4.84850702 -3 6 C-1.125 1.125 -1.125 1.125 0 0 Z " fill="#D8D8D8" transform="translate(193,71)"/>
<path d="M0 0 C1.2380014 3.57644848 0.74926071 6.33694766 0 10 C-0.66 10 -1.32 10 -2 10 C-3.62514468 11.45833358 -3.62514468 11.45833358 -5 13 C-4.54554036 11.58208592 -4.08625056 10.16571954 -3.625 8.75 C-3.24214844 7.56664062 -3.24214844 7.56664062 -2.8515625 6.359375 C-2.04826333 4.13372042 -1.10288338 2.09068328 0 0 Z " fill="#8C8C8D" transform="translate(284,32)"/>
<path d="M0 0 C1.5625 1.8125 1.5625 1.8125 3 4 C2.67 4.99 2.34 5.98 2 7 C-0.64 6.67 -3.28 6.34 -6 6 C-5.67 5.34 -5.34 4.68 -5 4 C-3.35 4 -1.7 4 0 4 C0 2.68 0 1.36 0 0 Z " fill="#BABABA" transform="translate(407,86)"/>
<path d="M0 0 C0.33 1.32 0.66 2.64 1 4 C2.65 4 4.3 4 6 4 C6.33 3.34 6.66 2.68 7 2 C6.67 3.32 6.34 4.64 6 6 C4.02 6 2.04 6 0 6 C-1.125 2.25 -1.125 2.25 0 0 Z " fill="#B0B0B0" transform="translate(305,87)"/>
<path d="M0 0 C0.99 0.33 1.98 0.66 3 1 C3.6875 3.0625 3.6875 3.0625 4 5 C2.35 5.66 0.7 6.32 -1 7 C-0.67 4.69 -0.34 2.38 0 0 Z " fill="#505251" transform="translate(242,32)"/>
<path d="M0 0 C2.50298434 2.93828597 3.46930939 5.17902761 4 9 C2.68 8.67 1.36 8.34 0 8 C0 5.36 0 2.72 0 0 Z " fill="#868787" transform="translate(343,56)"/>
<path d="M0 0 C0.66 0 1.32 0 2 0 C2 2.31 2 4.62 2 7 C1.01 7 0.02 7 -1 7 C-0.67 4.69 -0.34 2.38 0 0 Z " fill="#29292A" transform="translate(285,32)"/>
<path d="M0 0 C4.29 0 8.58 0 13 0 C12.67 0.99 12.34 1.98 12 3 C6.06 2.01 6.06 2.01 0 1 C0 0.67 0 0.34 0 0 Z " fill="#303031" transform="translate(207,33)"/>
<path d="M0 0 C2.475 0.99 2.475 0.99 5 2 C5 2.66 5 3.32 5 4 C3.68 4.33 2.36 4.66 1 5 C0.67 3.35 0.34 1.7 0 0 Z " fill="#212224" transform="translate(196,65)"/>
<path d="M0 0 C1 2 1 2 0.25 4.5625 C-1 7 -1 7 -4 8 C-2.87548273 5.0280615 -1.77706209 2.66559313 0 0 Z " fill="#9A9A9C" transform="translate(206,33)"/>
<path d="" fill="#FFFFFF" transform="translate(0,0)"/>
<path d="" fill="#FFFFFF" transform="translate(0,0)"/>
<path d="" fill="#FFFFFF" transform="translate(0,0)"/>
<path d="" fill="#FFFFFF" transform="translate(0,0)"/>
<path d="" fill="#FFFFFF" transform="translate(0,0)"/>
<path d="" fill="#FFFFFF" transform="translate(0,0)"/>
<path d="" fill="#FFFFFF" transform="translate(0,0)"/>
<path d="" fill="#FFFFFF" transform="translate(0,0)"/>
<path d="" fill="#FFFFFF" transform="translate(0,0)"/>
<path d="" fill="#FFFFFF" transform="translate(0,0)"/>
<path d="" fill="#FFFFFF" transform="translate(0,0)"/>
<path d="" fill="#FFFFFF" transform="translate(0,0)"/>
<path d="" fill="#FFFFFF" transform="translate(0,0)"/>
<path d="" fill="#FFFFFF" transform="translate(0,0)"/>
<path d="" fill="#FFFFFF" transform="translate(0,0)"/>
<path d="" fill="#FFFFFF" transform="translate(0,0)"/>
<path d="" fill="#FFFFFF" transform="translate(0,0)"/>
<path d="" fill="#FFFFFF" transform="translate(0,0)"/>
<path d="" fill="#FFFFFF" transform="translate(0,0)"/>
<path d="" fill="#FFFFFF" transform="translate(0,0)"/>
<path d="" fill="#FFFFFF" transform="translate(0,0)"/>
<path d="" fill="#FFFFFF" transform="translate(0,0)"/>
<path d="" fill="#FFFFFF" transform="translate(0,0)"/>
<path d="" fill="#FFFFFF" transform="translate(0,0)"/>
<path d="" fill="#FFFFFF" transform="translate(0,0)"/>
<path d="" fill="#FFFFFF" transform="translate(0,0)"/>
<path d="" fill="#FFFFFF" transform="translate(0,0)"/>
<path d="" fill="#FFFFFF" transform="translate(0,0)"/>
<path d="" fill="#FFFFFF" transform="translate(0,0)"/>
<path d="" fill="#FFFFFF" transform="translate(0,0)"/>
<path d="" fill="#FFFFFF" transform="translate(0,0)"/>
<path d="" fill="#FFFFFF" transform="translate(0,0)"/>
<path d="" fill="#FFFFFF" transform="translate(0,0)"/>
<path d="" fill="#FFFFFF" transform="translate(0,0)"/>
<path d="" fill="#FFFF00" transform="translate(0,0)"/>
<path d="" fill="#FFFFFF" transform="translate(0,0)"/>
<path d="" fill="#FFFFFF" transform="translate(0,0)"/>
<path d="" fill="#FFFFFF" transform="translate(0,0)"/>
<path d="" fill="#FFFFFF" transform="translate(0,0)"/>
<path d="" fill="#FFFFFF" transform="translate(0,0)"/>
<path d="" fill="#FFFFFF" transform="translate(0,0)"/>
<path d="" fill="#FFFFFF" transform="translate(0,0)"/>
<path d="" fill="#FFFFFF" transform="translate(0,0)"/>
<path d="" fill="#FFFFFF" transform="translate(0,0)"/>
<path d="" fill="#FFFFFF" transform="translate(0,0)"/>
<path d="" fill="#FFFFFF" transform="translate(0,0)"/>
<path d="" fill="#FFFFFF" transform="translate(0,0)"/>
<path d="" fill="#FFFFFF" transform="translate(0,0)"/>
<path d="" fill="#FFFFFF" transform="translate(0,0)"/>
<path d="" fill="#FFFFFF" transform="translate(0,0)"/>
<path d="" fill="#FFFFFE" transform="translate(0,0)"/>
<path d="" fill="#FFFFFF" transform="translate(0,0)"/>
<path d="" fill="#FFFFFF" transform="translate(0,0)"/>
<path d="" fill="#FFFFFF" transform="translate(0,0)"/>
<path d="" fill="#FFFFFF" transform="translate(0,0)"/>
<path d="" fill="#FFFFFF" transform="translate(0,0)"/>
<path d="" fill="#FFFFFF" transform="translate(0,0)"/>
<path d="" fill="#FFFFFF" transform="translate(0,0)"/>
<path d="" fill="#FFFFFF" transform="translate(0,0)"/>
<path d="" fill="#FFFFFF" transform="translate(0,0)"/>
<path d="" fill="#FFFFFF" transform="translate(0,0)"/>
<path d="" fill="#FFFFFF" transform="translate(0,0)"/>
<path d="" fill="#FFFFFF" transform="translate(0,0)"/>
<path d="" fill="#FFFFFF" transform="translate(0,0)"/>
<path d="" fill="#FFFFFF" transform="translate(0,0)"/>
<path d="" fill="#FFFFFF" transform="translate(0,0)"/>
<path d="" fill="#FFFFFF" transform="translate(0,0)"/>
<path d="" fill="#FFFFFF" transform="translate(0,0)"/>
<path d="" fill="#FFFFFF" transform="translate(0,0)"/>
<path d="" fill="#FFFFFF" transform="translate(0,0)"/>
<path d="" fill="#FFFFFF" transform="translate(0,0)"/>
<path d="" fill="#FFFFFF" transform="translate(0,0)"/>
<path d="" fill="#FFFFFF" transform="translate(0,0)"/>
<path d="" fill="#FFFFFF" transform="translate(0,0)"/>
<path d="" fill="#FFFFFF" transform="translate(0,0)"/>
<path d="" fill="#FFFFFF" transform="translate(0,0)"/>
<path d="" fill="#FFFFFF" transform="translate(0,0)"/>
<path d="" fill="#FFFFFF" transform="translate(0,0)"/>
</svg>
